<?xml version="1.0" encoding="UTF-8"?>
<svg width="30px" height="32px" viewBox="0 0 30 32" version="1.1" xmlns="http://www.w3.org/2000/svg" xmlns:xlink="http://www.w3.org/1999/xlink">
    <!-- Generator: Sketch 58 (84663) - https://sketch.com -->
    <title>delivered</title>
    <desc>Created with Sketch.</desc>
    <g id="Page-1" stroke="none" stroke-width="1" fill="none" fill-rule="evenodd">
        <g id="07-Order-Track" transform="translate(-1291.000000, -815.000000)" fill-rule="nonzero">
            <g id="delivered" transform="translate(1291.000000, 815.000000)">
                <path d="M18.7030785,5.28923554 L18.7030785,7.9338843 C18.7030785,9.97555785 17.0422314,11.636343 15.0006198,11.636343 C12.9590083,11.636343 11.2981612,9.97555785 11.2981612,7.9338843 L11.2981612,5.28923554 L10.2402893,5.28923554 L10.2402893,7.9338843 C10.2402893,10.5583884 12.3761157,12.6942149 15.0006198,12.6942149 C17.6256818,12.6942149 19.7609504,10.5583884 19.7609504,7.9338843 L19.7609504,5.28923554 L18.7030785,5.28923554 Z" id="Path" fill="#000000"></path>
                <path d="M29.868719,27.1328306 L27.0220661,15.7355579 C26.7195248,14.5655579 25.6664256,13.7695661 24.4985331,13.7536983 L18.1736157,13.2628512 L18.1736157,11.107438 L17.1157438,11.107438 L17.1157438,13.7520868 C17.1157438,14.0281612 17.3283471,14.2577479 17.6039256,14.2794421 L24.4588017,14.8099587 C24.4598554,14.8099587 24.4609091,14.8099587 24.4619628,14.8099587 C25.1855579,14.8099587 25.8170455,15.2991942 25.9974174,15.9958264 L28.8430165,27.389938 C28.8953926,27.599938 28.9223554,27.8162603 28.9223554,28.0331405 C28.9217975,29.4913636 27.7354339,30.6777893 26.2772107,30.6777893 L26.2772107,31.7355372 C28.3183264,31.7355372 29.9796694,30.0746901 29.9802276,28.0330785 C29.9802276,27.7294835 29.9427893,27.4263843 29.868719,27.1328306 Z" id="Path" fill="#000000"></path>
                <path d="M11.8270661,11.107438 L11.8270661,13.2627893 L5.54448347,13.7520248 C5.54237603,13.7520248 5.54076446,13.7520248 5.53921488,13.7520248 C4.33382231,13.7520248 3.28072314,14.5671074 2.97762397,15.7397107 L0.132520661,27.1322727 C-0.108161157,28.0917149 0.0389256198,29.0871694 0.547190083,29.9355992 C1.05495868,30.7839669 1.86316116,31.383781 2.82210744,31.623905 C3.11671488,31.6979752 3.41981405,31.7354752 3.72390496,31.7354752 L3.72390496,30.6776033 C3.50702479,30.6776033 3.29070248,30.6506405 3.08020661,30.5977066 C2.3947314,30.4258264 1.81766529,29.9978926 1.45481405,29.3917562 C1.09196281,28.7856198 0.986714876,28.0747314 1.15859504,27.3886983 L4.0031405,15.9998554 C4.18456612,15.2979545 4.81766529,14.8081612 5.58464876,14.8081612 L12.3971901,14.2792562 C12.6722107,14.2581198 12.884876,14.0280372 12.884876,13.7519008 L12.884876,11.107438 L11.8270661,11.107438 Z" id="Path" fill="#000000"></path>
                <path d="M17.1163017,0 L12.884876,0 C11.4266529,0 10.2402893,1.18636364 10.2402893,2.64464876 L10.2402893,5.81820248 C10.2402893,6.11014463 10.4772521,6.34710744 10.7691942,6.34710744 L19.2319835,6.34710744 C19.5239256,6.34710744 19.7608884,6.11014463 19.7608884,5.81820248 L19.7608884,2.64464876 C19.7608884,1.18636364 18.5745868,0 17.1163017,0 Z M18.7031405,5.28923554 L11.2981612,5.28923554 L11.2981612,2.64464876 C11.2981612,1.76981405 12.0101033,1.0578719 12.884938,1.0578719 L17.1163636,1.0578719 C17.9911983,1.0578719 18.7031405,1.76981405 18.7031405,2.64464876 L18.7031405,5.28923554 L18.7031405,5.28923554 Z" id="Shape" fill="#000000"></path>
                <path d="M17.1163017,3.17355372 L12.884876,3.17355372 C11.4266529,3.17355372 10.2402273,4.35991736 10.2402273,5.81820248 C10.2402273,6.11014463 10.4771901,6.34710744 10.7691322,6.34710744 L19.2319215,6.34710744 C19.5238636,6.34710744 19.7608264,6.11014463 19.7608264,5.81820248 C19.7609504,4.35991736 18.5745868,3.17355372 17.1163017,3.17355372 Z M11.3890909,5.28923554 C11.6070248,4.67355372 12.195186,4.23136364 12.884876,4.23136364 L17.1163017,4.23136364 C17.8059917,4.23136364 18.3942149,4.67355372 18.6126446,5.28923554 L11.3890909,5.28923554 Z" id="Shape" fill="#000000"></path>
                <path d="M10.2402893,28.5619835 L6.00886364,28.5619835 L6.00886364,27.5041116 C6.00886364,26.6292769 5.29692149,25.9173347 4.42208678,25.9173347 C3.54725207,25.9173347 2.83530992,26.6292769 2.83530992,27.5041116 L2.83530992,31.2065702 C2.83530992,31.4990702 3.07227273,31.7354752 3.36421488,31.7354752 L8.12454545,31.7354752 C9.5827686,31.7354752 10.7691942,30.5491116 10.7691942,29.0908264 C10.7691942,28.7983884 10.5322314,28.5619835 10.2402893,28.5619835 Z M8.12460744,30.6776653 L3.89318182,30.6776653 L3.89318182,27.5041116 C3.89318182,27.2121694 4.1306405,26.9752066 4.42208678,26.9752066 C4.71353306,26.9752066 4.95099174,27.2121694 4.95099174,27.5041116 L4.95099174,29.0908884 C4.95099174,29.3833884 5.18795455,29.6197934 5.47989669,29.6197934 L9.62082645,29.6197934 C9.40245868,30.2354752 8.81429752,30.6776653 8.12460744,30.6776653 Z" id="Shape" fill="#000000"></path>
                <path d="M24.521281,15.8677686 L5.47995868,15.8677686 C5.18801653,15.8677686 4.95105372,16.1047314 4.95105372,16.3966736 L4.95105372,29.0908884 C4.95105372,29.3833884 5.18801653,29.6197934 5.47995868,29.6197934 L24.521281,29.6197934 C24.8132231,29.6197934 25.050186,29.3833884 25.050186,29.0908884 L25.050186,16.3966736 C25.050186,16.1047314 24.813781,15.8677686 24.521281,15.8677686 Z M23.992376,28.5619835 L6.00886364,28.5619835 L6.00886364,16.9256405 L23.992376,16.9256405 L23.992376,28.5619835 L23.992376,28.5619835 Z" id="Shape" fill="#000000"></path>
                <polygon id="Rectangle" fill="#E34234" points="19.8761364 26.4463017 22.9340083 26.4463017 22.9340083 27.5041736 19.8761364 27.5041736"></polygon>
                <polygon id="Rectangle" fill="#E34234" points="9.76039256 22.4463017 20.8182645 22.4463017 20.8182645 23.5041736 9.76039256 23.5041736"></polygon>
                <path d="M17.2707645,13.3781405 L15.0006198,15.648843 L12.7299174,13.3781405 L11.9820248,14.1260331 L14.6266736,16.7706818 C14.7255992,16.8701033 14.8604752,16.9256405 15.0006198,16.9256405 C15.1407645,16.9256405 15.2756405,16.8701033 15.3745661,16.7706818 L18.018657,14.1260331 L17.2707645,13.3781405 Z" id="Path" fill="#000000"></path>
                <path d="M25.5791529,25.9173347 C24.7043182,25.9173347 23.992376,26.6292769 23.992376,27.5041116 L23.992376,28.5619835 L19.7609504,28.5619835 C19.4684504,28.5619835 19.2320455,28.7983884 19.2320455,29.0908884 C19.2320455,30.5491116 20.4184091,31.7355372 21.8766942,31.7355372 L26.6370248,31.7355372 C26.9289669,31.7355372 27.1659298,31.4991322 27.1659298,31.2066322 L27.1659298,27.5041736 C27.1659298,26.6292769 26.4539876,25.9173347 25.5791529,25.9173347 Z M26.1080579,30.6776653 L21.8766322,30.6776653 C21.1869421,30.6776653 20.598719,30.2354752 20.3802893,29.6197934 L24.521219,29.6197934 C24.813719,29.6197934 25.050124,29.3833884 25.050124,29.0908884 L25.050124,27.5041116 C25.050124,27.2121694 25.2870868,26.9752066 25.5790289,26.9752066 C25.8709711,26.9752066 26.1079339,27.2121694 26.1079339,27.5041116 L26.1079339,30.6776653 L26.1080579,30.6776653 Z" id="Shape" fill="#000000"></path>
                <rect id="Rectangle" fill="#000000" x="5.47940083" y="19.5702273" width="19.0413223" height="1.0578719"></rect>
            </g>
        </g>
    </g>
</svg>