<?xml version="1.0" encoding="UTF-8"?>
<svg width="120px" height="30px" viewBox="0 0 120 30" version="1.1" xmlns="http://www.w3.org/2000/svg" xmlns:xlink="http://www.w3.org/1999/xlink">
    <!-- Generator: sketchtool 57.1 (101010) - https://sketch.com -->
    <title>FB3C8F04-3C0C-4B6B-AB55-771E5168F85A</title>
    <desc>Created with sketchtool.</desc>
    <g id="Page-1" stroke="none" stroke-width="1" fill="none" fill-rule="evenodd">
        <g id="03-consumer-web" transform="translate(-388.000000, -1762.000000)" fill-rule="nonzero">
            <g id="listing">
                <g id="bottom" transform="translate(0.000000, 1741.000000)">
                    <g id="Black-logo---no-background" transform="translate(388.000000, 21.000000)">
                        <g id="SvgjsG1111" transform="translate(86.799694, 0.015613)" fill="#E34234">
                            <g id="SvgjsG1112">
                                <path d="M22.8297835,2.71576789 C23.5562904,2.71576789 24.2164434,2.12332289 24.3274845,1.42356071 C24.4432652,0.696715323 23.9405333,0.131353521 23.2411096,0.131353521 C22.5142643,0.131353521 21.8544498,0.723798523 21.7427316,1.42356071 C21.6272895,2.15040609 22.1293443,2.71576789 22.8297835,2.71576789 Z M31.4066945,16.7272615 L9.54716658,16.7272615 C8.98180478,16.7272615 8.42456794,17.1849676 8.32977674,17.7774126 C8.2397251,18.3427744 8.62024406,18.8279022 9.21268906,18.8279022 L31.0993002,18.8279022 C31.6650005,18.8279022 32.2218988,18.3698576 32.31669,17.7774126 C32.384398,17.1849676 31.9991395,16.7272615 31.4066945,16.7272615 Z M10.5167451,15.538309 L31.3538822,15.538309 C32.223253,10.0729192 29.9699307,4.60752942 22.6740551,4.60752942 C20.9515636,4.60752942 19.3614412,4.98263174 17.9324639,5.63059731 C17.9246775,5.63025877 17.9165525,5.62788899 17.908089,5.62788899 L7.20040729,5.62788899 C6.63944651,5.62788899 6.18478729,6.08254821 6.18478729,6.64350899 C6.18478729,7.20446977 6.63944651,7.659129 7.20040729,7.659129 L14.8385468,7.659129 C14.6259437,7.84972702 14.4224811,8.04811146 14.2234196,8.251574 L1.19098373,8.251574 C0.630022943,8.251574 0.175363721,8.70623322 0.175363721,9.267194 C0.175363721,9.82815479 0.630022943,10.282814 1.19098373,10.282814 L12.5872558,10.282814 C12.4589491,10.477136 12.3357206,10.6748433 12.2175701,10.875259 L3.22222374,10.875259 C2.66126295,10.875259 2.20660373,11.3295797 2.20660373,11.890879 C2.20660373,12.4515013 2.66126295,12.906499 3.22222374,12.906499 L11.2330958,12.906499 C10.8999724,13.7690989 10.6575778,14.653704 10.5167451,15.538309 Z M14.840578,12.8306661 C15.7258602,9.71372827 18.1332181,8.27831866 19.8743293,7.63306142 C20.0984428,7.54944204 20.2514629,7.862253 20.0486774,7.98852842 C18.1003797,9.1977933 16.7844747,11.0299718 16.3599456,12.9924882 C16.0410409,14.3977677 14.4895121,14.0737849 14.840578,12.8306661 Z" id="Shape"></path>
                            </g>
                        </g>
                        <g id="SvgjsG1113" transform="translate(0.611141, 4.567733)" fill="#FFFFFF">
                            <path d="M0.480089884,7.24636931 C0.480089884,5.06183895 0.511332999,2.72127071 0.573748152,0.224664592 C1.3149281,0.189556068 2.93382113,0.172001806 5.43042725,0.172001806 C7.19755627,0.172001806 8.5589868,0.189556068 9.51471883,0.224664592 C9.57713398,0.224664592 9.63174724,0.248070274 9.67855861,0.294881639 C9.72536997,0.341693004 9.74877575,0.396306762 9.74877595,0.458722914 C9.76437974,1.410554 9.77218163,2.08541784 9.77218163,2.48331444 C9.77218163,3.09576313 9.76437974,3.66920235 9.74877595,4.2036321 C9.0895159,4.23483967 7.84901473,4.25044346 6.02727245,4.25044346 C5.6995929,4.25044346 5.40312092,4.24849299 5.13785652,4.24459204 C5.13005463,4.78292274 5.1242032,5.19252218 5.12030226,5.47339037 C6.51684131,5.48119226 7.45111813,5.49484558 7.92313273,5.51435031 C7.98554788,5.51435031 8.04016114,5.53775599 8.0869725,5.58456736 C8.13378387,5.63137872 8.15718965,5.68599248 8.15718985,5.74840863 C8.16889269,6.38816395 8.17474411,6.97525649 8.17474411,7.50968623 C8.17474411,7.98950272 8.16889269,8.51027916 8.15718985,9.07201554 L5.12027822,9.07201554 C5.12417916,9.34508183 5.13003058,9.75078032 5.13783248,10.289111 L5.41870666,10.289111 C7.33017072,10.289111 8.71110598,10.3047148 9.56151244,10.3359224 C9.6239276,10.3359224 9.67854086,10.3593281 9.72535222,10.4061394 C9.77216358,10.4529508 9.79556937,10.5075646 9.79556957,10.5699807 C9.81117335,11.5218118 9.81897525,12.1966756 9.81897525,12.5945722 C9.81897525,13.2070209 9.81117335,13.7804601 9.79556957,14.3148899 C9.05438962,14.3499984 7.71636478,14.3675527 5.78149504,14.3675527 C5.39530128,14.3675527 4.57317668,14.3548746 3.31512125,14.3295184 C2.05706582,14.3041623 1.22128198,14.2836821 0.807769737,14.268078 C0.745354584,14.268078 0.690741325,14.2446723 0.64392996,14.1978609 C0.597118596,14.1510496 0.573712813,14.0964358 0.573712614,14.0340196 C0.51129746,11.1005074 0.480089884,8.83795815 0.480089884,7.24637175 L0.480089884,7.24636931 Z M10.2578466,14.0750105 C10.2578466,14.0125953 10.2949056,13.7687861 10.3690236,13.3435829 C10.5757738,12.0601713 10.8117811,10.7309236 11.0770455,9.35583977 C11.3423099,7.98075593 11.6855952,6.27407598 12.1069015,4.23579993 C12.5282078,2.19752388 12.8032259,0.860461479 12.9319559,0.224612724 C13.7121454,0.189504201 14.7849058,0.171949939 16.1502373,0.171949939 C17.421946,0.171949939 18.5337159,0.189504201 19.485547,0.224612724 C19.5479622,0.224612724 19.6064764,0.24704317 19.6610896,0.291904061 C19.7157029,0.336764953 19.748861,0.392353386 19.760564,0.458669361 C19.9322057,1.32858056 20.2238015,2.75047576 20.6353514,4.72435498 C21.0469013,6.69823419 21.397988,8.44294244 21.6886116,9.95847973 C21.9792351,11.474017 22.2279211,12.9105442 22.4346694,14.2680613 C21.6973904,14.3031698 21.0186256,14.3207241 20.398375,14.3207241 C19.4036335,14.3207241 18.6390479,14.3031698 18.1046182,14.2680613 C18.0383021,14.2641604 17.9788126,14.2397794 17.9261498,14.1949185 C17.873487,14.1500576 17.8413044,14.0964186 17.8296019,14.0340013 C17.6540593,13.1367835 17.5116747,12.3565941 17.4024482,11.6934331 L15.2315992,11.6934331 C15.1067689,12.5282357 14.9565825,13.3864441 14.7810398,14.2680581 C14.032058,14.3031666 13.3864513,14.3207241 12.8442196,14.3207241 C12.1966624,14.3207241 11.3989187,14.3031666 10.4509886,14.2680581 C10.3924744,14.2680581 10.345663,14.2495286 10.3105545,14.2124696 C10.275446,14.1754106 10.2578466,14.1295729 10.2578466,14.0749566 L10.2578466,14.0750105 Z M15.6236364,8.65074021 L16.9401667,8.65074021 C16.846544,8.0109849 16.7197632,7.09913852 16.5598244,5.91520108 C16.3998855,4.73126365 16.284806,3.89352247 16.2145857,3.40197755 C16.1365667,4.03783192 16.0331916,4.9496783 15.9044604,6.13751668 C15.7757291,7.32535506 15.6821044,8.16309624 15.6235862,8.65074021 L15.6236364,8.65074021 Z M22.5516821,2.0039758 C22.5516821,1.37592332 22.5594843,0.782979371 22.5750881,0.22514394 C23.320169,0.190035417 25.1263075,0.172481155 27.9935036,0.172481155 C30.2599538,0.172481155 31.871045,0.190035417 32.826777,0.22514394 C32.8891922,0.22514394 32.9438054,0.248549623 32.9906168,0.295360987 C33.0374281,0.342172352 33.0608339,0.39678611 33.0608341,0.459202262 C33.0764379,1.3408163 33.0842398,2.0039773 33.0842398,2.44868527 C33.0842398,3.08453964 33.0764379,3.6696817 33.0608341,4.20411145 C32.8072726,4.21581429 31.8632434,4.2294676 30.2287466,4.24507139 C30.2443503,5.08767596 30.2521522,6.08826888 30.2521522,7.24685016 C30.2521522,9.43138052 30.2209447,11.7719488 30.1585295,14.2685549 C29.4173496,14.3036634 28.7346838,14.3212177 28.1105323,14.3212177 C27.466876,14.3212177 26.6671819,14.3036634 25.7114498,14.2685549 C25.6490347,14.2685549 25.5944214,14.2451492 25.5476101,14.1983378 C25.5007987,14.1515265 25.4773929,14.0969127 25.4773927,14.0344966 C25.4149776,11.1009844 25.38377,8.83843506 25.38377,7.24684866 C25.38377,6.52517345 25.3915719,5.51677864 25.4071757,4.22166421 C24.5099579,4.20215947 23.6439476,4.18070427 22.8091449,4.15729858 C22.7467298,4.15729858 22.6921165,4.1338929 22.6453052,4.08708154 C22.5984938,4.04027017 22.575088,3.98565641 22.5750878,3.92324026 C22.559484,3.02602244 22.5516821,2.38626712 22.5516821,2.0039743 L22.5516821,2.0039758 Z M41.0655787,7.24636931 C41.0655787,5.06183895 41.0967863,2.72127071 41.1592014,0.224664592 C41.9003814,0.189556068 42.5830471,0.172001806 43.2071986,0.172001806 C43.8508549,0.172001806 44.6505491,0.189556068 45.6062811,0.224664592 C45.6686962,0.224664592 45.7233095,0.248070274 45.7701209,0.294881639 C45.8169322,0.341693004 45.840338,0.396306762 45.8403382,0.458722914 C45.9027534,3.39223511 45.9339609,5.65478441 45.9339609,7.24637081 C45.9339609,9.43090117 45.9027534,11.7714694 45.8403382,14.2680755 C45.0991583,14.3031841 44.4164925,14.3207383 43.792341,14.3207383 C43.1486847,14.3207383 42.3489906,14.3031841 41.3932586,14.2680755 C41.3308434,14.2680755 41.2762301,14.2446698 41.2294188,14.1978585 C41.1826074,14.1510471 41.1592016,14.0964334 41.1592014,14.0340172 C41.0967863,11.100505 41.0655787,8.83795571 41.0655787,7.24636931 Z M46.8935918,2.0039758 C46.8935918,1.37592332 46.901394,0.782979371 46.9169978,0.22514394 C47.6620787,0.190035417 49.4682172,0.172481155 52.3354133,0.172481155 C54.6018635,0.172481155 56.2129547,0.190035417 57.1686867,0.22514394 C57.2311018,0.22514394 57.2857151,0.248549623 57.3325265,0.295360987 C57.3793378,0.342172352 57.4027436,0.39678611 57.4027438,0.459202262 C57.4183476,1.3408163 57.4261495,2.0039773 57.4261495,2.44868527 C57.4261495,3.08453964 57.4183476,3.6696817 57.4027438,4.20411145 C57.1491823,4.21581429 56.2051531,4.2294676 54.5706562,4.24507139 C54.58626,5.08767596 54.5940619,6.08826888 54.5940619,7.24685016 C54.5940619,9.43138052 54.5628544,11.7719488 54.5004392,14.2685549 C53.7592593,14.3036634 53.0765935,14.3212177 52.452442,14.3212177 C51.8087857,14.3212177 51.0090916,14.3036634 50.0533595,14.2685549 C49.9909444,14.2685549 49.9363311,14.2451492 49.8895198,14.1983378 C49.8427084,14.1515265 49.8193026,14.0969127 49.8193024,14.0344966 C49.7568873,11.1009844 49.7256797,8.83843506 49.7256797,7.24684866 C49.7256797,6.52517345 49.7334816,5.51677864 49.7490854,4.22166421 C48.8518675,4.20215947 47.9858573,4.18070427 47.1510546,4.15729858 C47.0886395,4.15729858 47.0340262,4.1338929 46.9872149,4.08708154 C46.9404035,4.04027017 46.9169977,3.98565641 46.9169975,3.92324026 C46.9013937,3.02602244 46.8935918,2.38626712 46.8935918,2.0039743 L46.8935918,2.0039758 Z M65.4074884,7.24636931 C65.4074884,5.06183895 65.438696,2.72127071 65.5011111,0.224664592 C66.2422911,0.189556068 66.9249568,0.172001806 67.5491083,0.172001806 C68.1927646,0.172001806 68.9924587,0.189556068 69.9481908,0.224664592 C70.0106059,0.224664592 70.0652192,0.248070274 70.1120306,0.294881639 C70.1588419,0.341693004 70.1822477,0.396306762 70.1822479,0.458722914 C70.2446631,3.39223511 70.2758706,5.65478441 70.2758706,7.24637081 C70.2758706,9.43090117 70.2446631,11.7714694 70.1822479,14.2680755 C69.441068,14.3031841 68.7584022,14.3207383 68.1342507,14.3207383 C67.4905944,14.3207383 66.6909003,14.3031841 65.7351682,14.2680755 C65.6727531,14.2680755 65.6181398,14.2446698 65.5713285,14.1978585 C65.5245171,14.1510471 65.5011113,14.0964334 65.5011111,14.0340172 C65.438696,11.100505 65.4074884,8.83795571 65.4074884,7.24636931 Z M71.9610795,7.24636931 C71.9610795,5.06183895 71.992287,2.72127071 72.0547022,0.224664592 C72.7958821,0.189556068 73.4395384,0.172001806 73.985671,0.172001806 C74.4498837,0.172001806 75.1247475,0.189556068 76.0102625,0.224664592 C76.12339,0.228565539 76.2092108,0.30658448 76.267725,0.458721416 L78.6902319,6.45057611 L78.6083124,0.224679571 C79.3533933,0.189571048 80.0360591,0.172001806 80.6563097,0.172001806 C81.2648574,0.172001806 81.9865326,0.189571048 82.8213353,0.224679571 C82.8876514,0.228580518 82.9432399,0.252961438 82.9881008,0.297822329 C83.0329617,0.34268322 83.055392,0.396322303 83.0553917,0.458739579 C83.1178068,3.39225177 83.1490144,5.65480107 83.1490144,7.24638747 C83.1490144,9.43091783 83.1178068,11.7714861 83.0553917,14.2680922 C82.4078345,14.3032007 81.8031877,14.320755 81.2414513,14.320755 C80.5743894,14.320755 79.860516,14.3032007 79.0998314,14.2680922 C78.9828029,14.2641912 78.8969821,14.1861723 78.8423689,14.0340354 L76.419862,8.04218068 L76.5017814,14.2680772 C75.7606015,14.3031857 75.1169452,14.320755 74.5708126,14.320755 C73.954463,14.320755 73.1937783,14.3031857 72.2887586,14.2680772 C72.2224425,14.2641763 72.166854,14.2397953 72.1219931,14.1949345 C72.0771322,14.1500736 72.0547019,14.0964345 72.0547022,14.0340172 C71.992287,11.100505 71.9610795,8.83795571 71.9610795,7.24636931 L71.9610795,7.24636931 Z" id="Shape"></path>
                        </g>
                        <g id="SvgjsG1114" transform="translate(0.574759, 24.676788)" fill="#FFFFFF">
                            <path d="M0.0571994783,0.0938082321 C0.276467351,0.0675915005 0.526122135,0.0544831348 0.806164494,0.0544831348 C1.00874833,0.0544831348 1.2000113,0.0604414828 1.37995341,0.072358179 C1.40259514,0.0735498486 1.42464102,0.0806998663 1.44609108,0.0938082321 C1.46754113,0.106916598 1.48184147,0.123600125 1.4889921,0.143858813 C1.60220071,0.490634671 1.75473442,1.01020262 1.94659323,1.70256267 C2.13130202,1.03403602 2.28443157,0.514468063 2.40598187,0.143858813 C2.41313189,0.12360043 2.42743192,0.106917055 2.44888197,0.0938086897 C2.47033203,0.0807003239 2.49237742,0.0735502757 2.51501815,0.0723585451 C2.69496026,0.0604418489 2.88622323,0.0544831348 3.08880707,0.0544831348 C3.36884943,0.0544831348 3.61850421,0.0675918666 3.83777142,0.0938085981 C3.64948762,0.895802249 3.4504788,1.50355375 3.24074495,1.91706311 C3.09178624,2.17208041 2.8993316,2.39671013 2.66338102,2.59095228 C2.67291437,3.37864589 2.67887272,3.96792652 2.68125606,4.35879415 C2.45483883,4.36951918 2.24152997,4.37488169 2.04132948,4.37488169 C1.83517064,4.37488169 1.58611169,4.36951918 1.29415263,4.35879415 C1.27508592,4.35879415 1.25840254,4.35164413 1.24410251,4.3373441 C1.22980247,4.32304406 1.22265242,4.30636053 1.22265236,4.28729351 C1.22265236,3.9309843 1.22622737,3.36553707 1.23337739,2.59095182 C0.993851796,2.39313466 0.800205483,2.16850494 0.652438451,1.91706265 C0.445087938,1.50831997 0.246674947,0.900568469 0.0571994783,0.0938081405 L0.0571994783,0.0938082321 Z M3.93965568,2.21184253 C3.93965568,1.86506667 3.97719642,1.55612632 4.05227161,1.28502148 C4.12734679,1.01391665 4.23549076,0.787800675 4.37670349,0.606673567 C4.51791622,0.425546459 4.68892482,0.285520512 4.88972927,0.186595728 C5.09053372,0.0876709431 5.31724763,0.0316630051 5.56987099,0.0185719136 C5.80224656,0.0185719136 6.00959707,0.034361536 6.19192252,0.0659407808 C6.37424798,0.0975200256 6.54137611,0.14876159 6.69330693,0.219665475 C6.84523775,0.290569359 6.97483039,0.382625284 7.08208485,0.495833249 C7.18933931,0.609041214 7.28020426,0.746675432 7.35467968,0.908735902 C7.4291551,1.07079637 7.48397206,1.25968192 7.51913054,1.47539254 C7.55428903,1.69110315 7.57186084,1.93658481 7.57186084,2.21183749 C7.57186084,2.55861335 7.53372741,2.8675537 7.45746055,3.13865854 C7.3811937,3.40976337 7.27126204,3.63558648 7.12766559,3.81612786 C6.98406913,3.99666924 6.81157181,4.13609725 6.61017362,4.2344119 C6.40877543,4.33272655 6.18117073,4.38843675 5.92735951,4.40154248 C5.69617561,4.40154248 5.48971885,4.38575286 5.30798923,4.35417361 C5.12625962,4.32259437 4.96002228,4.27165055 4.80927721,4.20134216 C4.65853215,4.13103376 4.52983031,4.03957333 4.42317168,3.92696086 C4.31651306,3.81434838 4.22654257,3.67700703 4.15326023,3.5149368 C4.07997789,3.35286656 4.02605539,3.16428609 3.99149274,2.94919537 C3.95693009,2.73410464 3.93965568,2.48831792 3.93965568,2.21183521 L3.93965568,2.21184253 Z M5.43399743,2.21184253 C5.43399743,2.37867627 5.43965786,2.52048496 5.45097872,2.63726858 C5.46229958,2.7540522 5.47659992,2.84610813 5.49387974,2.91343635 C5.51115956,2.98076458 5.5346949,3.0329006 5.56448576,3.06984442 C5.59427663,3.10678824 5.62406829,3.13062133 5.65386076,3.14134368 C5.68365322,3.15206604 5.71999895,3.15743111 5.76289795,3.15743111 C5.80579695,3.15743111 5.8415472,3.15207123 5.87014868,3.14134368 C5.89875016,3.13061614 5.92735084,3.10678305 5.95595072,3.06984442 C5.9845506,3.03290579 6.00689496,2.98076977 6.02298379,2.91343635 C6.03907263,2.84610294 6.05218077,2.75404702 6.0623082,2.63726858 C6.07243564,2.52049014 6.07750203,2.3786826 6.07750203,2.21184596 C6.07750203,2.07361228 6.07392702,1.9523599 6.066777,1.84808881 C6.05962698,1.74381772 6.04830617,1.65771915 6.03281458,1.58979311 C6.01732298,1.52186706 6.00063945,1.46615687 5.98276399,1.42266253 C5.96488854,1.37916819 5.94194869,1.34669559 5.91394445,1.32524474 C5.8859402,1.30379388 5.85912722,1.2891958 5.83350549,1.28145048 C5.80788376,1.27370516 5.77719886,1.2698318 5.74145078,1.2698318 C5.70570271,1.2698318 5.6756133,1.27340636 5.65118255,1.28055688 C5.62675181,1.28770739 5.60202426,1.30230548 5.57699992,1.32435114 C5.55197557,1.34639679 5.53141891,1.37916714 5.51532993,1.42266216 C5.49924095,1.46615719 5.48464286,1.52216513 5.47153567,1.59068598 C5.45842848,1.65920683 5.44889512,1.74500765 5.4429356,1.84808844 C5.43697608,1.95116924 5.43399743,2.07242134 5.43399743,2.21184474 L5.43399743,2.21184253 Z M7.80781137,2.24047005 C7.80781137,1.55526003 7.8173513,0.831320735 7.83641801,0.0686521816 C8.06283524,0.0579271551 8.27137742,0.0525595854 8.46204456,0.0525595854 C8.65867005,0.0525595854 8.90296232,0.0579271551 9.19492137,0.0686521816 C9.21398809,0.0686521816 9.23067146,0.0758021993 9.2449715,0.0901022347 C9.25927153,0.10440227 9.26642158,0.121085797 9.26642164,0.140152816 C9.28548836,1.03628837 9.29502171,1.80849028 9.29502171,2.45675855 C9.29502171,2.61286727 9.30038423,2.73978008 9.31110925,2.83749699 C9.32183428,2.9352139 9.3403055,3.00939531 9.36652292,3.06004123 C9.39274034,3.11068715 9.42193651,3.14435195 9.45411144,3.16103563 C9.48628636,3.17771931 9.52859067,3.18606095 9.58102436,3.18606056 C9.65133287,3.18606056 9.70436217,3.16997302 9.74011226,3.13779794 C9.77586235,3.10562286 9.80356857,3.03620782 9.82323093,2.92955281 C9.84289329,2.82289781 9.85272451,2.66470205 9.8527246,2.45496553 C9.8527246,1.62675515 9.86225796,0.831315678 9.88132467,0.0686471252 C10.1089336,0.0579220986 10.3174758,0.0525595854 10.5069512,0.0525595854 C10.7035767,0.0525595854 10.947869,0.0579220986 11.239828,0.0686471252 C11.2588947,0.0686471252 11.2755781,0.0757971428 11.2898782,0.0900971782 C11.3041782,0.104397214 11.3113282,0.121080741 11.3113283,0.14014776 C11.330395,1.03628331 11.3399284,1.73638921 11.3399284,2.24046546 C11.3399284,2.54672455 11.3166908,2.81902105 11.2702157,3.05735498 C11.2237406,3.2956889 11.1570065,3.49857094 11.0700134,3.66600109 C10.9830203,3.83343124 10.8736841,3.97255419 10.7420049,4.08336993 C10.6103257,4.19418567 10.4628561,4.2770066 10.2995961,4.3318327 C10.1363362,4.38665881 9.95162393,4.41942915 9.74545944,4.43014373 C9.57743403,4.43014373 9.42609198,4.42329163 9.29143332,4.40958743 C9.15677465,4.39588323 9.02629121,4.37294338 8.89998301,4.34076788 C8.7736748,4.30859238 8.66225319,4.26539483 8.56571819,4.21117524 C8.46918319,4.15695564 8.37891374,4.08962604 8.29490984,4.00918644 C8.21090594,3.92874683 8.13970321,3.83341326 8.08130163,3.72318573 C8.02290006,3.6129582 7.97255173,3.48574508 7.93025665,3.34154639 C7.88796157,3.19734769 7.8569777,3.03379494 7.83730505,2.85088815 C7.8176324,2.66798135 7.80781137,2.46450138 7.80781137,2.24044824 L7.80781137,2.24047005 Z M11.733179,2.12068838 C11.733179,1.88235446 11.7355624,1.55226198 11.740329,1.13041093 C11.7450957,0.708559889 11.747479,0.378464736 11.747479,0.140125475 C11.9858129,0.103183717 12.2393406,0.0736898936 12.5080621,0.0516440057 C12.7767836,0.0295981179 13.0118441,0.0185751854 13.2132437,0.0185751854 C13.3872275,0.0185751854 13.533207,0.021256442 13.6511823,0.0266189553 C13.7691576,0.0319814685 13.8963707,0.0438981342 14.0328217,0.0623689522 C14.1692726,0.0808397702 14.2815875,0.10735501 14.3697662,0.141914672 C14.4579449,0.176474334 14.546129,0.224141729 14.6343182,0.284916856 C14.7225075,0.345691984 14.7913258,0.419575652 14.8407732,0.506567862 C14.8902206,0.593560072 14.9304395,0.700214083 14.9614298,0.826529895 C14.9924202,0.952845708 15.0079115,1.09763071 15.0079038,1.26088489 C15.0079038,1.5194772 14.9411703,1.74708609 14.8077033,1.94371158 C14.6742363,2.14033707 14.4883404,2.29465237 14.2500156,2.40665749 C14.4120827,2.46266596 14.5437622,2.57706625 14.6450541,2.74985834 C14.8821964,3.21580116 15.0716718,3.75205249 15.2134805,4.35861232 C14.9942133,4.38482905 14.7445585,4.39793742 14.4645162,4.39793742 C14.2619323,4.39793742 14.0706694,4.39197907 13.8907273,4.38006237 C13.8680855,4.3788707 13.8460396,4.37172069 13.8245896,4.35861232 C13.8031395,4.34550395 13.7888392,4.32882043 13.7816886,4.30856174 C13.549313,3.60309333 13.3687751,3.03347525 13.2400747,2.59970751 L13.1453367,2.59970751 C13.14772,2.73317451 13.1533804,3.00666269 13.1623179,3.42017204 C13.1712555,3.8336814 13.1763201,4.14649753 13.1775118,4.35862044 C12.982078,4.36696213 12.7729399,4.37113297 12.5500977,4.37113297 C12.3487056,4.37113297 12.1050091,4.36696213 11.8190084,4.35862044 C11.79875,4.35862044 11.7817687,4.35176834 11.7680645,4.33806414 C11.7543603,4.32435994 11.7475083,4.30737867 11.7475084,4.28712032 C11.7475084,4.06666144 11.745125,3.71094806 11.7403583,3.21998018 C11.7355917,2.7290123 11.733179,2.36257752 11.733179,2.12067583 L11.733179,2.12068838 Z M13.1417462,1.7203081 L13.2632984,1.7203081 C13.376507,1.7203081 13.4679676,1.69200354 13.5376803,1.63539924 C13.607393,1.57879493 13.6422476,1.50401802 13.6422476,1.41106852 C13.6422476,1.2942849 13.6184143,1.20759093 13.5707475,1.15098662 C13.5230807,1.09438232 13.4384721,1.06608148 13.3169216,1.06608148 C13.2549548,1.06608148 13.1977547,1.06786898 13.1453212,1.07144399 C13.1429378,1.35029468 13.1417462,1.56658272 13.1417462,1.7203081 L13.1417462,1.7203081 Z M17.4031434,0.612178794 C17.4031434,0.420319986 17.4055268,0.239186205 17.4102935,0.0687774501 C17.6379024,0.0580524236 18.1896455,0.0526899103 19.0655226,0.0526899103 C19.7578827,0.0526899103 20.2500422,0.0580524236 20.5420013,0.0687774501 C20.561068,0.0687774501 20.5777514,0.0759274678 20.5920514,0.0902275032 C20.6063514,0.104527539 20.6135015,0.121211066 20.6135015,0.140278085 C20.6182682,0.409595417 20.6206516,0.612179252 20.6206516,0.748029588 C20.6206516,0.942271735 20.6182682,1.12102218 20.6135015,1.28428091 C20.536043,1.28785592 20.247659,1.29202677 19.7483494,1.29679345 C19.7531161,1.55419408 19.7554994,1.85985734 19.7554994,2.21378321 C19.7554994,2.8811182 19.7459661,3.59611997 19.7268993,4.35878852 C19.5004821,4.36951355 19.2919399,4.37487606 19.1012728,4.37487606 C18.9046473,4.37487606 18.660355,4.36951355 18.368396,4.35878852 C18.3493293,4.35878852 18.3326459,4.3516385 18.3183459,4.33733847 C18.3040458,4.32303843 18.2968958,4.3063549 18.2968957,4.28728789 C18.277829,3.39115234 18.2682956,2.69998396 18.2682956,2.21378276 C18.2682956,1.99332388 18.270679,1.68527728 18.2754457,1.28964297 C18.0013617,1.28368462 17.736811,1.27713044 17.4817937,1.26998042 C17.462727,1.26998042 17.4460436,1.2628304 17.4317436,1.24853037 C17.4174435,1.23423033 17.4102935,1.21754681 17.4102934,1.19847979 C17.4055268,0.924395776 17.4031434,0.728961959 17.4031434,0.612178337 L17.4031434,0.612178794 Z M20.9138027,2.21363632 C20.9138027,1.54630134 20.923336,0.831299571 20.9424027,0.0686310178 C21.1688199,0.0579059912 21.3773621,0.052543478 21.5680293,0.052543478 C21.7646548,0.052543478 22.008947,0.0579059912 22.3009061,0.0686310178 C22.3199728,0.0686310178 22.3366562,0.0757810355 22.3509562,0.0900810708 C22.3652562,0.104381106 22.3724063,0.121064633 22.3724063,0.140131652 C22.3914731,1.0362672 22.4010064,1.72743558 22.4010064,2.21363678 C22.4010064,2.88097177 22.3914731,3.59597353 22.3724063,4.35864209 C22.1459891,4.36936711 21.9374469,4.37472963 21.7467798,4.37472963 C21.5501543,4.37472963 21.305862,4.36936711 21.013903,4.35864209 C20.9948363,4.35864209 20.9781529,4.35149207 20.9638529,4.33719203 C20.9495528,4.322892 20.9424028,4.30620847 20.9424027,4.28714145 C20.923336,3.3910059 20.9138027,2.69983753 20.9138027,2.21363632 Z M22.9158076,2.21363632 C22.9158076,1.54630134 22.925341,0.831299571 22.9444077,0.0686310178 C23.1708249,0.0579059912 23.3674504,0.052543478 23.5342841,0.052543478 C23.7344846,0.052543478 23.9406435,0.0579059912 24.1527607,0.0686310178 C24.1873191,0.0698226874 24.2135358,0.0936560797 24.2314109,0.140131195 L25.1287484,1.97053572 L26.0260859,0.140131195 C26.0594526,0.0960394189 26.0886485,0.0728018614 26.1136736,0.0704185222 C26.2626323,0.0585018261 26.4300619,0.052543478 26.6159623,0.052543478 C26.8161628,0.052543478 27.0366217,0.0579059912 27.277339,0.0686310178 C27.2975974,0.0698226874 27.3145787,0.0772706225 27.3282829,0.090974823 C27.3419871,0.104679024 27.3488391,0.121064805 27.348839,0.140132167 C27.3679057,1.03626772 27.3774391,1.72743609 27.3774391,2.2136373 C27.3774391,2.88097228 27.3679057,3.59597405 27.348839,4.3586426 C27.1438719,4.36936763 26.9591631,4.37473111 26.7947127,4.37473111 C26.645754,4.37473111 26.4252951,4.36936763 26.133336,4.3586426 C26.1142693,4.3586426 26.0975859,4.35149258 26.0832859,4.33719255 C26.0689859,4.32289251 26.0618358,4.30620899 26.0618358,4.28714197 C26.0582608,4.15367497 26.0528982,3.95377239 26.0457482,3.68743423 C26.0385982,3.42109608 26.0326399,3.17918981 26.0278732,2.96171545 C26.0231066,2.74424108 26.0201274,2.53600206 26.0189357,2.33699838 L25.20382,4.00116557 L25.1251712,4.01546579 L25.0536719,4.00116557 L24.2779098,2.41742636 L24.3029348,4.35864357 C24.0765175,4.3693686 23.8798921,4.37473111 23.7130583,4.37473111 C23.5402662,4.37473111 23.3078906,4.3693686 23.0159316,4.35864357 C22.9968649,4.35864357 22.9801815,4.35149356 22.9658815,4.33719352 C22.9515814,4.32289349 22.9444314,4.30620996 22.9444313,4.28714294 C22.9253646,3.39100739 22.9158076,2.69983901 22.9158076,2.21363781 L22.9158076,2.21363632 Z M27.8922091,2.21363632 C27.8922091,1.54630134 27.9017533,0.831299571 27.92082,0.0686310178 C28.1472372,0.0579059912 28.6417801,0.052543478 29.4044487,0.052543478 C29.944275,0.052543478 30.3601677,0.0579059912 30.6521267,0.0686310178 C30.6711935,0.0686310178 30.6878768,0.0757810355 30.7021769,0.0900810708 C30.7164769,0.104381106 30.7236269,0.121064633 30.723627,0.140131652 C30.7283937,0.430899038 30.730777,0.637057882 30.730777,0.758608182 C30.730777,0.945700312 30.7283937,1.12087574 30.723627,1.28413448 C30.5222348,1.29366784 30.1432839,1.29843452 29.5867742,1.29843452 C29.4866739,1.29843452 29.3961071,1.29783868 29.3150735,1.29664701 C29.3126902,1.46109742 29.3109027,1.58622273 29.309711,1.67202294 C29.7363287,1.67440628 30.0217336,1.67857712 30.1659256,1.68453547 C30.1849923,1.68453547 30.2016757,1.69168549 30.2159758,1.70598553 C30.2302758,1.72028556 30.2374258,1.73696909 30.2374259,1.75603611 C30.2410009,1.95146992 30.2427884,2.1308162 30.2427884,2.29407494 C30.2427884,2.4406503 30.2410009,2.59973819 30.2374259,2.77133862 L29.3097037,2.77133862 C29.3108953,2.85475549 29.3126828,2.97868913 29.3150662,3.14313954 L29.4008682,3.14313954 C29.9847863,3.14313954 30.4066374,3.14790622 30.6664214,3.15743957 C30.6854881,3.15743957 30.7021714,3.16458959 30.7164715,3.17888963 C30.7307715,3.19318966 30.7379216,3.20987319 30.7379216,3.22894021 C30.7426883,3.51970759 30.7450716,3.72586644 30.7450716,3.84741674 C30.7450716,4.03450887 30.7426883,4.2096843 30.7379216,4.37294304 C30.5115044,4.38366807 30.1027617,4.38903058 29.5116936,4.38903058 C29.3937183,4.38903058 29.1425739,4.38515765 28.7582605,4.3774118 C28.373947,4.36966595 28.11863,4.36340962 27.9923094,4.35864283 C27.9732427,4.35864283 27.9565593,4.35149281 27.9422593,4.33719278 C27.9279592,4.32289274 27.9208092,4.30620922 27.9208091,4.2871422 C27.9017424,3.39100665 27.8922091,2.69983827 27.8922091,2.21363707 L27.8922091,2.21363632 Z M31.0185646,3.74195089 C31.0185646,3.58584217 31.0203521,3.4219876 31.0239271,3.25038717 C31.1979109,3.24204549 31.374278,3.23787464 31.5530284,3.23787464 C31.7103288,3.23787464 31.915296,3.24204549 32.1679299,3.25038717 C32.1869966,3.25038717 32.20368,3.25753719 32.21798,3.27183723 C32.2322801,3.28613726 32.2394301,3.30282079 32.2394302,3.32188781 C32.2430052,3.51493828 32.2447927,3.69785957 32.2447927,3.87065166 C32.2447927,4.02437704 32.2430052,4.18703995 32.2394302,4.35864037 C32.1321799,4.36459872 32.0028838,4.36757789 31.8515417,4.36757789 C31.6322745,4.36757789 31.3802364,4.35983204 31.0954274,4.34434034 C31.075169,4.34314867 31.0581877,4.33570073 31.0444835,4.32199653 C31.0307793,4.30829233 31.0239272,4.29190655 31.0239273,4.27283919 C31.0203523,4.08574706 31.0185646,3.90878412 31.0185646,3.74195037 L31.0185646,3.74195089 Z M34.5131347,0.0938082321 C34.7324026,0.0675915005 34.9820574,0.0544831348 35.2620997,0.0544831348 C35.4646836,0.0544831348 35.6559465,0.0604414828 35.8358886,0.072358179 C35.8585304,0.0735498486 35.8805763,0.0806998663 35.9020263,0.0938082321 C35.9234764,0.106916598 35.9377767,0.123600125 35.9449273,0.143858813 C36.0581359,0.490634671 36.2106697,1.01020262 36.4025285,1.70256267 C36.5872373,1.03403602 36.7403668,0.514468063 36.8619171,0.143858813 C36.8690671,0.12360043 36.8833672,0.106917055 36.9048172,0.0938086897 C36.9262673,0.0807003239 36.9483127,0.0735502757 36.9709534,0.0723585451 C37.1508955,0.0604418489 37.3421585,0.0544831348 37.5447423,0.0544831348 C37.8247847,0.0544831348 38.0744394,0.0675918666 38.2937067,0.0938085981 C38.1054229,0.895802249 37.906414,1.50355375 37.6966802,1.91706311 C37.5477215,2.17208041 37.3552668,2.39671013 37.1193163,2.59095228 C37.1288496,3.37864589 37.134808,3.96792652 37.1371913,4.35879415 C36.9107741,4.36951918 36.6974652,4.37488169 36.4972647,4.37488169 C36.2911059,4.37488169 36.0420469,4.36951918 35.7500879,4.35879415 C35.7310212,4.35879415 35.7143378,4.35164413 35.7000377,4.3373441 C35.6857377,4.32304406 35.6785877,4.30636053 35.6785876,4.28729351 C35.6785876,3.9309843 35.6821626,3.36553707 35.6893126,2.59095182 C35.449787,2.39313466 35.2561407,2.16850494 35.1083737,1.91706265 C34.9010232,1.50831997 34.7026102,0.900568469 34.5131347,0.0938081405 L34.5131347,0.0938082321 Z M38.3955909,2.21184253 C38.3955909,1.86506667 38.4331317,1.55612632 38.5082068,1.28502148 C38.583282,1.01391665 38.691426,0.787800675 38.8326387,0.606673567 C38.9738515,0.425546459 39.1448601,0.285520512 39.3456645,0.186595728 C39.546469,0.0876709431 39.7731829,0.0316630051 40.0258062,0.0185719136 C40.2581818,0.0185719136 40.4655323,0.034361536 40.6478578,0.0659407808 C40.8301832,0.0975200256 40.9973113,0.14876159 41.1492422,0.219665475 C41.301173,0.290569359 41.4307656,0.382625284 41.5380201,0.495833249 C41.6452745,0.609041214 41.7361395,0.746675432 41.8106149,0.908735902 C41.8850903,1.07079637 41.9399073,1.25968192 41.9750658,1.47539254 C42.0102243,1.69110315 42.0277961,1.93658481 42.0277961,2.21183749 C42.0277961,2.55861335 41.9896626,2.8675537 41.9133958,3.13865854 C41.8371289,3.40976337 41.7271973,3.63558648 41.5836008,3.81612786 C41.4400044,3.99666924 41.267507,4.13609725 41.0661089,4.2344119 C40.8647107,4.33272655 40.637106,4.38843675 40.3832947,4.40154248 C40.1521108,4.40154248 39.9456541,4.38575286 39.7639245,4.35417361 C39.5821949,4.32259437 39.4159575,4.27165055 39.2652124,4.20134216 C39.1144674,4.13103376 38.9857655,4.03957333 38.8791069,3.92696086 C38.7724483,3.81434838 38.6824778,3.67700703 38.6091955,3.5149368 C38.5359131,3.35286656 38.4819906,3.16428609 38.447428,2.94919537 C38.4128653,2.73410464 38.3955909,2.48831792 38.3955909,2.21183521 L38.3955909,2.21184253 Z M39.8899327,2.21184253 C39.8899327,2.37867627 39.8955931,2.52048496 39.906914,2.63726858 C39.9182348,2.7540522 39.9325352,2.84610813 39.949815,2.91343635 C39.9670948,2.98076458 39.9906301,3.0329006 40.020421,3.06984442 C40.0502119,3.10678824 40.0800035,3.13062133 40.109796,3.14134368 C40.1395885,3.15206604 40.1759342,3.15743111 40.2188332,3.15743111 C40.2617322,3.15743111 40.2974824,3.15207123 40.3260839,3.14134368 C40.3546854,3.13061614 40.3832861,3.10678305 40.411886,3.06984442 C40.4404858,3.03290579 40.4628302,2.98076977 40.478919,2.91343635 C40.4950079,2.84610294 40.508116,2.75404702 40.5182434,2.63726858 C40.5283709,2.52049014 40.5334373,2.3786826 40.5334373,2.21184596 C40.5334373,2.07361228 40.5298623,1.9523599 40.5227122,1.84808881 C40.5155622,1.74381772 40.5042414,1.65771915 40.4887498,1.58979311 C40.4732582,1.52186706 40.4565747,1.46615687 40.4386992,1.42266253 C40.4208238,1.37916819 40.3978839,1.34669559 40.3698797,1.32524474 C40.3418754,1.30379388 40.3150625,1.2891958 40.2894407,1.28145048 C40.263819,1.27370516 40.2331341,1.2698318 40.197386,1.2698318 C40.1616379,1.2698318 40.1315485,1.27340636 40.1071178,1.28055688 C40.082687,1.28770739 40.0579595,1.30230548 40.0329352,1.32435114 C40.0079108,1.34639679 39.9873541,1.37916714 39.9712652,1.42266216 C39.9551762,1.46615719 39.9405781,1.52216513 39.9274709,1.59068598 C39.9143637,1.65920683 39.9048304,1.74500765 39.8988708,1.84808844 C39.8929113,1.95116924 39.8899327,2.07242134 39.8899327,2.21184474 L39.8899327,2.21184253 Z M42.2637466,2.24047005 C42.2637466,1.55526003 42.2732865,0.831320735 42.2923532,0.0686521816 C42.5187705,0.0579271551 42.7273127,0.0525595854 42.9179798,0.0525595854 C43.1146053,0.0525595854 43.3588976,0.0579271551 43.6508566,0.0686521816 C43.6699233,0.0686521816 43.6866067,0.0758021993 43.7009067,0.0901022347 C43.7152068,0.10440227 43.7223568,0.121085797 43.7223569,0.140152816 C43.7414236,1.03628837 43.7509569,1.80849028 43.7509569,2.45675855 C43.7509569,2.61286727 43.7563195,2.73978008 43.7670445,2.83749699 C43.7777695,2.9352139 43.7962407,3.00939531 43.8224582,3.06004123 C43.8486756,3.11068715 43.8778717,3.14435195 43.9100467,3.16103563 C43.9422216,3.17771931 43.9845259,3.18606095 44.0369596,3.18606056 C44.1072681,3.18606056 44.1602974,3.16997302 44.1960475,3.13779794 C44.2317976,3.10562286 44.2595038,3.03620782 44.2791662,2.92955281 C44.2988285,2.82289781 44.3086597,2.66470205 44.3086598,2.45496553 C44.3086598,1.62675515 44.3181932,0.831315678 44.3372599,0.0686471252 C44.5648688,0.0579220986 44.773411,0.0525595854 44.9628865,0.0525595854 C45.1595119,0.0525595854 45.4038042,0.0579220986 45.6957633,0.0686471252 C45.71483,0.0686471252 45.7315134,0.0757971428 45.7458134,0.0900971782 C45.7601134,0.104397214 45.7672635,0.121080741 45.7672635,0.14014776 C45.7863302,1.03628331 45.7958636,1.73638921 45.7958636,2.24046546 C45.7958636,2.54672455 45.772626,2.81902105 45.7261509,3.05735498 C45.6796758,3.2956889 45.6129417,3.49857094 45.5259486,3.66600109 C45.4389555,3.83343124 45.3296193,3.97255419 45.1979401,4.08336993 C45.0662609,4.19418567 44.9187913,4.2770066 44.7555313,4.3318327 C44.5922714,4.38665881 44.4075592,4.41942915 44.2013947,4.43014373 C44.0333693,4.43014373 43.8820272,4.42329163 43.7473686,4.40958743 C43.6127099,4.39588323 43.4822264,4.37294338 43.3559182,4.34076788 C43.22961,4.30859238 43.1181884,4.26539483 43.0216534,4.21117524 C42.9251184,4.15695564 42.834849,4.08962604 42.7508451,4.00918644 C42.6668412,3.92874683 42.5956384,3.83341326 42.5372369,3.72318573 C42.4788353,3.6129582 42.428487,3.48574508 42.3861919,3.34154639 C42.3438968,3.19734769 42.3129129,3.03379494 42.2932403,2.85088815 C42.2735676,2.66798135 42.2637466,2.46450138 42.2637466,2.24044824 L42.2637466,2.24047005 Z M46.1891143,2.12068838 C46.1891143,1.88235446 46.1914976,1.55226198 46.1962643,1.13041093 C46.201031,0.708559889 46.2034143,0.378464736 46.2034142,0.140125475 C46.4417481,0.103183717 46.6952758,0.0736898936 46.9639973,0.0516440057 C47.2327188,0.0295981179 47.4677794,0.0185751854 47.669179,0.0185751854 C47.8431627,0.0185751854 47.9891423,0.021256442 48.1071176,0.0266189553 C48.2250929,0.0319814685 48.352306,0.0438981342 48.4887569,0.0623689522 C48.6252078,0.0808397702 48.7375227,0.10735501 48.8257014,0.141914672 C48.9138802,0.176474334 49.0020642,0.224141729 49.0902535,0.284916856 C49.1784427,0.345691984 49.2472611,0.419575652 49.2967085,0.506567862 C49.3461558,0.593560072 49.3863747,0.700214083 49.4173651,0.826529895 C49.4483554,0.952845708 49.4638467,1.09763071 49.463839,1.26088489 C49.463839,1.5194772 49.3971055,1.74708609 49.2636385,1.94371158 C49.1301715,2.14033707 48.9442757,2.29465237 48.7059509,2.40665749 C48.8680179,2.46266596 48.9996974,2.57706625 49.1009894,2.74985834 C49.3381316,3.21580116 49.5276071,3.75205249 49.6694158,4.35861232 C49.4501486,4.38482905 49.2004938,4.39793742 48.9204514,4.39793742 C48.7178676,4.39793742 48.5266046,4.39197907 48.3466625,4.38006237 C48.3240208,4.3788707 48.3019749,4.37172069 48.2805248,4.35861232 C48.2590748,4.34550395 48.2447744,4.32882043 48.2376238,4.30856174 C48.0052482,3.60309333 47.8247103,3.03347525 47.69601,2.59970751 L47.6012719,2.59970751 C47.6036552,2.73317451 47.6093157,3.00666269 47.6182532,3.42017204 C47.6271907,3.8336814 47.6322553,4.14649753 47.633447,4.35862044 C47.4380132,4.36696213 47.2288752,4.37113297 47.006033,4.37113297 C46.8046408,4.37113297 46.5609444,4.36696213 46.2749436,4.35862044 C46.2546853,4.35862044 46.237704,4.35176834 46.2239998,4.33806414 C46.2102956,4.32435994 46.2034435,4.30737867 46.2034436,4.28712032 C46.2034436,4.06666144 46.2010603,3.71094806 46.1962936,3.21998018 C46.1915269,2.7290123 46.1891143,2.36257752 46.1891143,2.12067583 L46.1891143,2.12068838 Z M47.5976814,1.7203081 L47.7192336,1.7203081 C47.8324422,1.7203081 47.9239029,1.69200354 47.9936155,1.63539924 C48.0633282,1.57879493 48.0981829,1.50401802 48.0981829,1.41106852 C48.0981829,1.2942849 48.0743495,1.20759093 48.0266827,1.15098662 C47.9790159,1.09438232 47.8944073,1.06608148 47.7728568,1.06608148 C47.71089,1.06608148 47.6536899,1.06786898 47.6012564,1.07144399 C47.5988731,1.35029468 47.5976814,1.56658272 47.5976814,1.7203081 L47.5976814,1.7203081 Z M51.9949277,4.31574976 L52.1701047,3.02337434 C52.6968227,3.18901642 53.1192696,3.27183745 53.4374454,3.27183745 C53.561379,3.27183745 53.6558188,3.24591864 53.7207648,3.19408101 C53.7857108,3.14224338 53.8181834,3.08415 53.8181826,3.01980088 C53.8181826,2.99596748 53.8134159,2.97421951 53.8038826,2.95455696 C53.7943492,2.93489442 53.777368,2.91642319 53.7529388,2.8991433 C53.7285096,2.8818634 53.705272,2.86696757 53.683226,2.8544558 C53.66118,2.84194403 53.6278129,2.8282404 53.5831248,2.81334492 C53.5384367,2.79844943 53.5011965,2.78653276 53.4714042,2.77759492 C53.441612,2.76865708 53.39752,2.75584668 53.3391282,2.73916375 C53.2330696,2.709372 53.1505465,2.68524069 53.0915589,2.66676982 C53.0325712,2.64829894 52.9491548,2.61701732 52.8413096,2.57292498 C52.7334644,2.52883263 52.6473659,2.48444288 52.5830139,2.43975572 C52.518662,2.39506857 52.445076,2.33429304 52.3622561,2.25742913 C52.2794363,2.18056522 52.2150866,2.09744655 52.169207,2.00807312 C52.1233275,1.91869969 52.0840019,1.80996024 52.0512301,1.68185477 C52.0184584,1.55374929 52.0020726,1.41343048 52.0020728,1.26089833 C52.0020728,1.09763959 52.0169687,0.952851736 52.0467604,0.826534757 C52.0765522,0.700217778 52.1155788,0.593563767 52.1638404,0.506572724 C52.212102,0.419581681 52.2785371,0.345698013 52.3631458,0.284921718 C52.4477545,0.224145424 52.5320654,0.176478029 52.6160785,0.141919534 C52.7000915,0.107361039 52.80615,0.080845799 52.934254,0.062373814 C53.062358,0.043901829 53.1815247,0.0319851633 53.291754,0.0266238171 C53.4019833,0.0212624708 53.5369451,0.0185799213 53.6966395,0.0185799213 C54.0886988,0.0185799213 54.5486832,0.0710133844 55.0765929,0.17588031 L54.9157186,1.36458162 C54.7333932,1.28235642 54.5254468,1.21323958 54.2918796,1.15723111 C54.0583123,1.10122263 53.8366626,1.07321867 53.6269302,1.0732192 C53.516105,1.0732192 53.4285172,1.09079633 53.3641671,1.12595058 C53.2998169,1.16110483 53.2676421,1.21085645 53.2676425,1.27520543 C53.2676425,1.29546381 53.2727071,1.31453052 53.2828363,1.33240557 C53.2929655,1.35028061 53.311139,1.36755963 53.3373567,1.38424262 C53.3635745,1.40092562 53.3885998,1.4155237 53.4124326,1.42803688 C53.4362654,1.44055006 53.4720157,1.45514815 53.5196833,1.47183114 C53.567351,1.48851413 53.6069744,1.50162227 53.6385535,1.51115555 L53.7806588,1.55405657 C54.0738095,1.64224012 54.2948642,1.72208199 54.4438229,1.79358217 C54.8346905,1.98067429 55.0837495,2.23688326 55.1909997,2.56220907 C55.2338998,2.69329272 55.2553499,2.83629308 55.2553499,2.99121013 C55.2553499,3.15089386 55.2395603,3.29627755 55.207981,3.42736121 C55.1764018,3.55844486 55.1329053,3.67195191 55.0774915,3.76788234 C55.0220777,3.86381278 54.9526627,3.9484214 54.8692464,4.0217082 C54.7858301,4.094995 54.6958596,4.15487608 54.5993349,4.20135142 C54.5028103,4.24782677 54.3937731,4.28566245 54.2722233,4.31485847 C54.1506736,4.34405449 54.0282317,4.36461115 53.9048977,4.37652846 C53.7815638,4.38844576 53.6477978,4.39440346 53.5035999,4.39440346 C53.0042903,4.39440346 52.5014057,4.36818672 51.9949277,4.31575326 L51.9949277,4.31574976 Z M55.6128376,2.21363632 C55.6128376,1.97411073 55.6152209,1.62673904 55.6199876,1.17152125 C55.6247543,0.716303453 55.6271376,0.372504672 55.6271375,0.140124902 C56.1550472,0.0590913687 56.6197983,0.0185746018 57.021391,0.0185746018 C57.2132498,0.0185746018 57.3768064,0.0227454454 57.5120609,0.0310871327 C57.6473154,0.03942882 57.7873414,0.0573033304 57.9321388,0.0847106638 C58.0769362,0.112117997 58.1975928,0.150549171 58.2941086,0.200004184 C58.3906244,0.249459198 58.4841703,0.31589434 58.5747462,0.399309612 C58.6653221,0.482724883 58.7365249,0.583719283 58.7883544,0.702292812 C58.840184,0.820866341 58.881595,0.964467678 58.9125876,1.13309682 C58.9435802,1.30172597 58.9590616,1.49447977 58.9590616,1.71135822 C58.9590616,1.86150859 58.9501241,1.99974227 58.932249,2.12605925 C58.914374,2.25237623 58.8887532,2.36647876 58.8553867,2.46836686 C58.8220202,2.57025495 58.7794181,2.66231088 58.7275805,2.74453463 C58.6757429,2.82675839 58.6179473,2.89915211 58.5541936,2.96171579 C58.4904399,3.02427947 58.4171518,3.07879868 58.3343291,3.12527342 C58.2515064,3.17174815 58.1642169,3.21077482 58.0724604,3.24235341 C57.980704,3.27393201 57.8788164,3.29925505 57.7667975,3.31832252 C57.6547787,3.33739 57.5406761,3.35109363 57.4244899,3.35943341 C57.3083037,3.36777319 57.1810906,3.37194407 57.0428506,3.37194605 C57.0523839,3.92011408 57.0571506,4.24901489 57.0571506,4.35864849 C56.8343084,4.36818185 56.6245745,4.37294853 56.427949,4.37294853 C56.2682653,4.37294853 56.0251647,4.36818185 55.6986472,4.35864849 C55.6795805,4.35864849 55.6628972,4.35149848 55.6485971,4.33719844 C55.6342971,4.32289841 55.627147,4.30621488 55.627147,4.28714786 C55.627147,4.06668898 55.6247636,3.72646731 55.619997,3.26648283 C55.6152303,2.80649836 55.6128376,2.4555488 55.6128376,2.21363415 L55.6128376,2.21363632 Z M57.0285456,2.19935917 L57.1411595,2.19935917 C57.1852512,2.19935917 57.2230867,2.19697583 57.254666,2.19220915 C57.2862452,2.18744247 57.3190156,2.17582367 57.352977,2.15735276 C57.3869385,2.13888184 57.4143469,2.11326106 57.4352024,2.08049041 C57.456058,2.04771976 57.473337,2.00213781 57.4870395,1.94374455 C57.500742,1.88535129 57.5075957,1.81504301 57.5075957,1.73281971 C57.5075957,1.65297785 57.5067019,1.58892561 57.5049144,1.54066299 C57.5031269,1.49240037 57.4977644,1.44801062 57.488827,1.40749374 C57.4798896,1.36697686 57.4691645,1.33718519 57.4566518,1.31811875 C57.4441391,1.2990523 57.4247746,1.28236877 57.3985584,1.26806816 C57.3723422,1.25376756 57.3440405,1.24512792 57.3136533,1.24214927 C57.283266,1.23917061 57.2424517,1.23768052 57.1912102,1.23768052 L57.0285456,1.23768052 L57.0285456,2.19937506 L57.0285456,2.19935917 Z M59.0287586,4.29966417 C59.0287586,4.28059745 59.0400795,4.2061181 59.0627212,4.07622611 C59.1258797,3.68416681 59.1979757,3.27810539 59.2790093,2.85804185 C59.3600428,2.43797831 59.4649103,1.91661809 59.5936119,1.29396118 C59.7223134,0.671304273 59.8063265,0.262855604 59.8456512,0.0686151732 C60.0839852,0.0578901467 60.4116943,0.0525276334 60.8287787,0.0525276334 C61.217263,0.0525276334 61.5568888,0.0578901467 61.8476562,0.0686151732 C61.8667229,0.0686151732 61.884598,0.0754672735 61.9012813,0.0891714741 C61.9179647,0.102875675 61.9280939,0.119856948 61.931669,0.140115293 C61.9841024,0.405857617 62.0731797,0.840221192 62.1989009,1.44320602 C62.324622,2.04619084 62.4318728,2.57916803 62.5206531,3.04213759 C62.6094334,3.50510714 62.6854025,3.94394053 62.7485604,4.35863774 C62.5233348,4.36936277 62.3159843,4.37472528 62.1265088,4.37472528 C61.8226331,4.37472528 61.5890658,4.36936277 61.4258071,4.35863774 C61.4055487,4.35744607 61.3873758,4.34999814 61.3712882,4.33629394 C61.3552007,4.32258973 61.3453695,4.30620395 61.3417946,4.28713659 C61.2881694,4.01305258 61.2446735,3.77471866 61.2113067,3.57213482 L60.5481512,3.57213482 C60.5100177,3.82715212 60.4641385,4.08931944 60.4105133,4.35863677 C60.1817128,4.36936179 59.9844914,4.37472528 59.8188494,4.37472528 C59.6210322,4.37472528 59.3773358,4.36936179 59.0877601,4.35863677 C59.069885,4.35863677 59.055585,4.35297634 59.0448599,4.34165548 C59.0341349,4.33033461 59.0287586,4.31633202 59.0287586,4.29964769 L59.0287586,4.29966417 Z M60.6679115,2.64264654 L61.070088,2.64264654 C61.0414879,2.44721272 61.0027587,2.16865995 60.9539002,1.80698822 C60.9050418,1.44531649 60.869887,1.18940153 60.848436,1.03924334 C60.8246026,1.23348549 60.7930233,1.51203826 60.7536982,1.87490166 C60.7143731,2.23776506 60.6857725,2.49368002 60.6678962,2.64264654 L60.6679115,2.64264654 Z M62.8629415,2.21184253 C62.8629415,1.88055837 62.8930442,1.58949307 62.9532236,1.33864662 C63.0134029,1.08780016 63.0977138,0.879256075 63.2061562,0.71301435 C63.3145986,0.546772625 63.451342,0.411517933 63.6163864,0.307250274 C63.7814309,0.202982615 63.9622626,0.128801201 64.1588817,0.0847060308 C64.3555009,0.0406108612 64.5789444,0.0185698544 64.8292125,0.0185698544 C64.9626795,0.0185698544 65.0886985,0.0284011287 65.2072697,0.0480636774 C65.3258408,0.067726226 65.4715166,0.0984111275 65.6442971,0.140118382 L65.4905724,1.26087507 L64.8309678,1.21618758 C64.7749593,1.21261257 64.7249092,1.21737925 64.6808174,1.23048761 C64.6367256,1.24359598 64.5938258,1.27159995 64.552118,1.31449952 C64.5104102,1.35739909 64.4758521,1.41549247 64.4484439,1.48877966 C64.4210357,1.56206684 64.3989903,1.65948585 64.3823077,1.78103669 C64.3656252,1.90258752 64.3572835,2.04618886 64.3572828,2.2118407 C64.3572828,2.37867444 64.3647307,2.52256855 64.3796266,2.64352302 C64.3945225,2.76447748 64.4147814,2.86219424 64.4404034,2.93667328 C64.4660253,3.01115233 64.4993924,3.06924571 64.5405045,3.11095342 C64.5816167,3.15266113 64.6248142,3.18036735 64.6700972,3.19407209 C64.7153801,3.20777682 64.7690049,3.21224557 64.8309714,3.20747834 L65.490576,3.16457732 L65.6371511,4.29426638 C65.3523421,4.34669985 65.0782581,4.37291658 64.8148991,4.37291658 C64.6754737,4.37291658 64.5473693,4.36785198 64.4305856,4.35772279 C64.313802,4.3475936 64.1985085,4.33031458 64.0847051,4.30588573 C63.9709017,4.28145689 63.8675241,4.24957978 63.7745723,4.21025442 C63.6816206,4.17092905 63.5925433,4.12087847 63.5073406,4.06010267 C63.4221378,3.99932688 63.3467642,3.92872085 63.2812197,3.8482846 C63.2156752,3.76784835 63.1560919,3.67400473 63.1024697,3.56675374 C63.0488476,3.45950275 63.0047556,3.33914389 62.9701937,3.20567716 C62.9356319,3.07221043 62.9091166,2.92236132 62.890648,2.75612981 C62.8721794,2.58989831 62.8629415,2.40846861 62.8629415,2.21184072 L62.8629415,2.21184253 Z M65.9732033,2.21363632 C65.9732033,1.54630134 65.9827475,0.831299571 66.0018142,0.0686310178 C66.2282314,0.0579059912 66.7227743,0.052543478 67.4854429,0.052543478 C68.0252692,0.052543478 68.4411619,0.0579059912 68.7331209,0.0686310178 C68.7521877,0.0686310178 68.768871,0.0757810355 68.7831711,0.0900810708 C68.7974711,0.104381106 68.8046211,0.121064633 68.8046212,0.140131652 C68.8093879,0.430899038 68.8117712,0.637057882 68.8117712,0.758608182 C68.8117712,0.945700312 68.8093879,1.12087574 68.8046212,1.28413448 C68.603229,1.29366784 68.2242781,1.29843452 67.6677684,1.29843452 C67.5676682,1.29843452 67.4771013,1.29783868 67.3960677,1.29664701 C67.3936844,1.46109742 67.3918969,1.58622273 67.3907052,1.67202294 C67.8173229,1.67440628 68.1027278,1.67857712 68.2469198,1.68453547 C68.2659865,1.68453547 68.2826699,1.69168549 68.29697,1.70598553 C68.31127,1.72028556 68.31842,1.73696909 68.3184201,1.75603611 C68.3219951,1.95146992 68.3237826,2.1308162 68.3237826,2.29407494 C68.3237826,2.4406503 68.3219951,2.59973819 68.3184201,2.77133862 L67.3906979,2.77133862 C67.3918895,2.85475549 67.393677,2.97868913 67.3960604,3.14313954 L67.4818624,3.14313954 C68.0657805,3.14313954 68.4876316,3.14790622 68.7474156,3.15743957 C68.7664823,3.15743957 68.7831656,3.16458959 68.7974657,3.17888963 C68.8117657,3.19318966 68.8189158,3.20987319 68.8189158,3.22894021 C68.8236825,3.51970759 68.8260658,3.72586644 68.8260658,3.84741674 C68.8260658,4.03450887 68.8236825,4.2096843 68.8189158,4.37294304 C68.5924986,4.38366807 68.1837559,4.38903058 67.5926878,4.38903058 C67.4747125,4.38903058 67.2235681,4.38515765 66.8392547,4.3774118 C66.4549412,4.36966595 66.1996242,4.36340962 66.0733036,4.35864283 C66.0542369,4.35864283 66.0375535,4.35149281 66.0232535,4.33719278 C66.0089534,4.32289274 66.0018034,4.30620922 66.0018033,4.2871422 C65.9827366,3.39100665 65.9732033,2.69983827 65.9732033,2.21363707 L65.9732033,2.21363632 Z M69.0995588,3.74195089 C69.0995588,3.58584217 69.1013463,3.4219876 69.1049213,3.25038717 C69.2789051,3.24204549 69.4552722,3.23787464 69.6340226,3.23787464 C69.791323,3.23787464 69.9962902,3.24204549 70.2489241,3.25038717 C70.2679908,3.25038717 70.2846742,3.25753719 70.2989742,3.27183723 C70.3132743,3.28613726 70.3204243,3.30282079 70.3204244,3.32188781 C70.3239994,3.51493828 70.3257869,3.69785957 70.3257869,3.87065166 C70.3257869,4.02437704 70.3239994,4.18703995 70.3204244,4.35864037 C70.2131741,4.36459872 70.083878,4.36757789 69.9325359,4.36757789 C69.7132687,4.36757789 69.4612306,4.35983204 69.1764216,4.34434034 C69.1561632,4.34314867 69.1391819,4.33570073 69.1254777,4.32199653 C69.1117735,4.30829233 69.1049214,4.29190655 69.1049215,4.27283919 C69.1013465,4.08574706 69.0995588,3.90878412 69.0995588,3.74195037 L69.0995588,3.74195089 Z" id="Shape"></path>
                        </g>
                    </g>
                </g>
            </g>
        </g>
    </g>
</svg>