<?xml version="1.0" encoding="UTF-8"?>
<svg width="28px" height="29px" viewBox="0 0 28 29" version="1.1" xmlns="http://www.w3.org/2000/svg" xmlns:xlink="http://www.w3.org/1999/xlink">
    <!-- Generator: sketchtool 57.1 (101010) - https://sketch.com -->
    <title>1C9C8256-DEDC-4876-A896-28E74F73C88C</title>
    <desc>Created with sketchtool.</desc>
    <g id="Page-1" stroke="none" stroke-width="1" fill="none" fill-rule="evenodd">
        <g id="07-Order-Track" transform="translate(-692.000000, -435.000000)" fill-rule="nonzero">
            <g id="Group-5" transform="translate(443.000000, 380.000000)">
                <g id="like-(1)" transform="translate(249.000000, 55.000000)">
                    <path d="M27.1332618,19.5339056 C27.722103,18.7828326 28.0045064,17.9776824 27.9684549,17.1484979 C27.9324034,16.2351931 27.5238197,15.5201717 27.1873391,15.0815451 C27.577897,14.1081545 27.7281116,12.5759657 26.4242489,11.3862661 C25.4688841,10.5150215 23.8465665,10.1244635 21.5993562,10.232618 C20.0190987,10.304721 18.6972103,10.5991416 18.643133,10.6111588 L18.6371245,10.6111588 C18.3366953,10.6652361 18.0182403,10.7313305 17.6937768,10.8034335 C17.6697425,10.4188841 17.7358369,9.46351931 18.4448498,7.31244635 C19.2860515,4.7527897 19.2379828,2.79399142 18.2886266,1.48412017 C17.2912017,0.108154506 15.698927,5.68434189e-14 15.2302575,5.68434189e-14 C14.7796137,5.68434189e-14 14.3650215,0.186266094 14.0706009,0.528755365 C13.4036481,1.30386266 13.4817597,2.73390558 13.5658798,3.39484979 C12.7727468,5.52188841 10.5495708,10.7373391 8.66888412,12.1854077 C8.63283262,12.2094421 8.6027897,12.239485 8.57274678,12.2695279 C8.01995708,12.8523605 7.64742489,13.4832618 7.39506438,14.0360515 C7.04055794,13.8437768 6.63798283,13.7356223 6.20536481,13.7356223 L2.54012876,13.7356223 C1.15815451,13.7356223 0.0405579399,14.8592275 0.0405579399,16.2351931 L0.0405579399,25.9991416 C0.0405579399,27.3811159 1.16416309,28.4987124 2.54012876,28.4987124 L6.20536481,28.4987124 C6.74012876,28.4987124 7.2388412,28.3304721 7.64742489,28.0420601 L9.05944206,28.2103004 C9.27575107,28.2403433 13.1212446,28.7270386 17.0688841,28.648927 C17.7839056,28.7030043 18.456867,28.7330472 19.0817597,28.7330472 C20.1572961,28.7330472 21.0946352,28.648927 21.8757511,28.4806867 C23.7143777,28.0901288 24.9701717,27.3090129 25.6070815,26.1613734 C26.0937768,25.2841202 26.0937768,24.4128755 26.0156652,23.8600858 C27.2113734,22.7785408 27.4216738,21.5828326 27.3796137,20.7416309 C27.3555794,20.2549356 27.2474249,19.8403433 27.1332618,19.5339056 Z M2.54012876,26.8763948 C2.05343348,26.8763948 1.66287554,26.4798283 1.66287554,25.9991416 L1.66287554,16.2291845 C1.66287554,15.7424893 2.05944206,15.3519313 2.54012876,15.3519313 L6.20536481,15.3519313 C6.69206009,15.3519313 7.08261803,15.7484979 7.08261803,16.2291845 L7.08261803,25.993133 C7.08261803,26.4798283 6.6860515,26.8703863 6.20536481,26.8703863 L2.54012876,26.8703863 L2.54012876,26.8763948 Z M25.5950644,18.8309013 C25.3427039,19.095279 25.2946352,19.4978541 25.4869099,19.8103004 C25.4869099,19.816309 25.7332618,20.2369099 25.7633047,20.8137339 C25.8053648,21.6008584 25.426824,22.2978541 24.633691,22.8927039 C24.3512876,23.1090129 24.2371245,23.4815451 24.3572961,23.8180258 C24.3572961,23.8240343 24.6156652,24.6171674 24.1950644,25.3682403 C23.7924893,26.0892704 22.8972103,26.6060086 21.5392704,26.8944206 C20.4517167,27.1287554 18.9736052,27.1708155 17.1590129,27.0266094 C17.1349785,27.0266094 17.1049356,27.0266094 17.0748927,27.0266094 C13.2113734,27.1107296 9.30579399,26.6060086 9.26373391,26.6 L9.25772532,26.6 L8.65085837,26.527897 C8.68690987,26.3596567 8.70493562,26.1793991 8.70493562,25.9991416 L8.70493562,16.2291845 C8.70493562,15.9708155 8.66287554,15.7184549 8.59077253,15.4841202 C8.69892704,15.0815451 8.99935622,14.1862661 9.7083691,13.423176 C12.4062232,11.2841202 15.0439914,4.06781116 15.1581545,3.75536481 C15.2062232,3.62918455 15.2182403,3.49098712 15.194206,3.3527897 C15.0920601,2.67982833 15.1281116,1.85665236 15.2723176,1.61030043 C15.5907725,1.61630901 16.45,1.70643777 16.9667382,2.42145923 C17.5796137,3.26866953 17.5555794,4.78283262 16.8946352,6.78969957 C15.8851931,9.84806867 15.801073,11.4583691 16.6002146,12.167382 C16.9967811,12.5218884 17.5255365,12.5399142 17.9100858,12.4017167 C18.2766094,12.3175966 18.6251073,12.2454936 18.9555794,12.1914163 C18.9796137,12.1854077 19.0096567,12.1793991 19.033691,12.1733906 C20.8783262,11.7708155 24.1830472,11.5244635 25.3306867,12.5699571 C26.3040773,13.4592275 25.6130901,14.6369099 25.5349785,14.7630901 C25.3126609,15.0995708 25.3787554,15.5381974 25.6791845,15.8085837 C25.6851931,15.8145923 26.3160944,16.4094421 26.3461373,17.2085837 C26.3701717,17.7433476 26.1178112,18.2901288 25.5950644,18.8309013 Z" id="Shape" fill="#0B2031"></path>
                    <path d="M3.375,17.3177878 L3.375,25 C3.375,25.3496894 3.8507875,25.6332659 4.4375,25.6332659 C5.0242125,25.6332659 5.5,25.3496894 5.5,25 L5.5,17.3177878 C5.5,16.9680351 5.0242125,16.6845219 4.4375,16.6845219 C3.8507875,16.6845219 3.375,16.9680984 3.375,17.3177878 Z" id="XMLID_689_" fill="#E34234"></path>
                </g>
            </g>
        </g>
    </g>
</svg>