<?xml version="1.0" encoding="UTF-8"?>
<svg width="131px" height="29px" viewBox="0 0 131 29" version="1.1" xmlns="http://www.w3.org/2000/svg" xmlns:xlink="http://www.w3.org/1999/xlink">
    <!-- Generator: sketchtool 57.1 (101010) - https://sketch.com -->
    <title>A245356A-A13A-40B7-8E8F-6025D36265FD</title>
    <desc>Created with sketchtool.</desc>
    <g id="Page-1" stroke="none" stroke-width="1" fill="none" fill-rule="evenodd">
        <g id="1.1-Login" transform="translate(-123.000000, -114.000000)" fill-rule="nonzero">
            <g id="Black-logo---no-background" transform="translate(123.000000, 114.000000)">
                <g id="SvgjsG1111" transform="translate(94.831936, 0.017058)" fill="#E34234">
                    <g id="SvgjsG1112">
                        <path d="M24.9423987,2.96707875 C25.7361348,2.96707875 26.4573768,2.31981026 26.5786934,1.55529371 C26.7051882,0.761187741 26.1559346,0.14350867 25.391788,0.14350867 C24.597682,0.14350867 23.8768098,0.790777158 23.7547535,1.55529371 C23.6286286,2.34939967 24.1771424,2.96707875 24.9423987,2.96707875 Z M34.312997,18.2751634 L10.4306392,18.2751634 C9.81296013,18.2751634 9.20415789,18.7752245 9.10059493,19.422493 C9.00221012,20.0401721 9.41794142,20.5701925 10.0652099,20.5701925 L33.9771572,20.5701925 C34.5952061,20.5701925 35.2036385,20.0697615 35.3072014,19.422493 C35.381175,18.7752245 34.9602655,18.2751634 34.312997,18.2751634 Z M11.4899403,16.976188 L34.2552977,16.976188 C35.205118,11.0050438 32.7432785,5.03389949 24.7722595,5.03389949 C22.8903727,5.03389949 21.153104,5.44371291 19.5918924,6.1516397 C19.5833855,6.15126984 19.5745087,6.14868076 19.565262,6.14868076 L7.86671626,6.14868076 C7.25384547,6.14868076 6.75711314,6.64541309 6.75711314,7.25828388 C6.75711314,7.87115467 7.25384547,8.367887 7.86671626,8.367887 L16.2116715,8.367887 C15.9793945,8.57612252 15.7571041,8.792865 15.5396218,9.01515549 L1.30119459,9.01515549 C0.688323803,9.01515549 0.191591472,9.51188782 0.191591472,10.1247586 C0.191591472,10.7376294 0.688323803,11.2343617 1.30119459,11.2343617 L13.7520512,11.2343617 C13.6118714,11.4466658 13.4772395,11.6626685 13.3481557,11.8816302 L3.52040084,11.8816302 C2.90753004,11.8816302 2.41079771,12.3779927 2.41079771,12.9912333 C2.41079771,13.6037343 2.90753004,14.1008365 3.52040084,14.1008365 L12.2725804,14.1008365 C11.9086306,15.0432594 11.6438053,16.0097237 11.4899403,16.976188 Z M16.2138907,14.0179861 C17.1810947,10.6126141 19.811224,9.04437504 21.7134536,8.33940719 C21.958306,8.24804987 22.1254862,8.58980763 21.9039355,8.72776828 C19.7753468,10.0489357 18.337671,12.0506598 17.8738569,14.1947829 C17.5254416,15.7301037 15.8303379,15.3761403 16.2138907,14.0179861 Z" id="Shape"></path>
                    </g>
                </g>
                <g id="SvgjsG1113" transform="translate(0.667695, 4.990421)" fill="#E34234">
                    <path d="M0.524516287,7.9169315 C0.524516287,5.53024977 0.558650567,2.97309079 0.626841474,0.245454531 C1.43660849,0.207097146 3.20531012,0.187918454 5.93294637,0.187918454 C7.86360141,0.187918454 9.35101556,0.207097146 10.3951888,0.245454531 C10.4633797,0.245454531 10.5230468,0.271026121 10.5741899,0.322169301 C10.6253331,0.373312481 10.6509048,0.432980069 10.650905,0.501172067 C10.6679528,1.54108339 10.6764766,2.27839756 10.6764766,2.71311459 C10.6764766,3.38223786 10.6679528,4.00874181 10.650905,4.59262645 C9.93063859,4.6267219 8.57534432,4.64376963 6.58502224,4.64376963 C6.22701999,4.64376963 5.90311318,4.64163866 5.61330183,4.63737673 C5.60477797,5.2255233 5.59838507,5.67302612 5.59412314,5.9798852 C7.11989467,5.98840906 8.1406273,6.00332582 8.65632103,6.02463548 C8.72451193,6.02463548 8.78417897,6.05020707 8.83532215,6.10135025 C8.88646533,6.15249343 8.91203703,6.21216102 8.91203725,6.28035302 C8.92482305,6.97930981 8.93121594,7.62073052 8.93121594,8.20461516 C8.93121594,8.72883275 8.92482305,9.29780062 8.91203725,9.91151878 L5.59409687,9.91151878 C5.5983588,10.209854 5.6047517,10.6530949 5.61327556,11.2412415 L5.92014119,11.2412415 C8.00848769,11.2412415 9.5172115,11.2582892 10.4463126,11.2923846 C10.5145035,11.2923846 10.5741705,11.3179562 10.6253137,11.3690994 C10.6764569,11.4202426 10.7020286,11.4799102 10.7020288,11.5481022 C10.7190765,12.5880135 10.7276004,13.3253277 10.7276004,13.7600447 C10.7276004,14.429168 10.7190765,15.0556719 10.7020288,15.6395566 C9.89226181,15.6779139 8.43041925,15.6970926 6.31650116,15.6970926 C5.89456992,15.6970926 4.99636783,15.6832414 3.62189487,15.6555388 C2.24742192,15.6278362 1.33429658,15.6054609 0.882518872,15.5884128 C0.814327966,15.5884128 0.754660923,15.5628412 0.703517743,15.511698 C0.652374563,15.4605548 0.626802864,15.4008872 0.626802646,15.3326952 C0.55861174,12.1277226 0.524516287,9.65580227 0.524516287,7.91693416 L0.524516287,7.9169315 Z M11.2070839,15.3774793 C11.2070839,15.3092884 11.2475723,15.0429176 11.328549,14.5783671 C11.5544314,13.1761916 11.8122782,11.7239384 12.1020896,10.2216074 C12.3919009,8.71927654 12.7669531,6.8546644 13.2272461,4.62777102 C13.6875391,2.40087764 13.9880067,0.940086585 14.1286491,0.245397864 C14.9810354,0.207040479 16.1530666,0.187861787 17.6447427,0.187861787 C19.0341324,0.187861787 20.248783,0.207040479 21.2886943,0.245397864 C21.3568852,0.245397864 21.4208142,0.269903971 21.4804812,0.318916185 C21.5401482,0.367928399 21.5763748,0.428660857 21.5891607,0.501113559 C21.7766857,1.45152432 22.0952651,3.0049984 22.5448989,5.16153582 C22.9945327,7.31807323 23.3781082,9.22423273 23.6956253,10.8800143 C24.0131425,12.5357959 24.2848413,14.105256 24.5107216,15.5883946 C23.7052165,15.6267519 22.9636404,15.6459306 22.2859933,15.6459306 C21.1992007,15.6459306 20.3638621,15.6267519 19.7799775,15.5883946 C19.7075246,15.5841326 19.6425302,15.5574955 19.5849941,15.5084833 C19.527458,15.4594711 19.4922973,15.4008684 19.4795118,15.3326752 C19.2877249,14.3524309 19.1321644,13.5000446 19.0128303,12.7755162 L16.641096,12.7755162 C16.5047142,13.6875696 16.3406299,14.6251945 16.1488429,15.5883911 C15.3305521,15.6267485 14.6252024,15.6459306 14.0327939,15.6459306 C13.3253132,15.6459306 12.4537482,15.6267485 11.4180988,15.5883911 C11.3541698,15.5883911 11.3030266,15.5681469 11.2646693,15.5276585 C11.2263119,15.4871702 11.2070839,15.4370908 11.2070839,15.3774203 L11.2070839,15.3774793 Z M17.0694114,9.45125962 L18.5077704,9.45125962 C18.405484,8.75230283 18.2669712,7.75607631 18.092232,6.46258005 C17.9174928,5.1690838 17.7917641,4.25382 17.7150458,3.71678865 C17.6298071,4.41148351 17.516866,5.40771003 17.3762222,6.70546822 C17.2355785,8.00322641 17.1332899,8.91849021 17.0693566,9.45125962 L17.0694114,9.45125962 Z M24.6385624,2.18941907 C24.6385624,1.50324807 24.6470866,0.855434463 24.6641343,0.245978237 C25.4781633,0.207620853 27.4514376,0.18844216 30.5839574,0.18844216 C33.0601397,0.18844216 34.8203174,0.207620853 35.8644907,0.245978237 C35.9326816,0.245978237 35.9923486,0.271549827 36.0434918,0.322693007 C36.094635,0.373836187 36.1202067,0.433503775 36.1202069,0.501695773 C36.1372546,1.46489233 36.1457785,2.18942071 36.1457785,2.67528091 C36.1457785,3.36997577 36.1372546,4.00926552 36.1202069,4.59315015 C35.8431814,4.60593595 34.8117939,4.62085271 33.0260445,4.63790044 C33.0430923,5.55847767 33.0516161,6.65166314 33.0516161,7.91745684 C33.0516161,10.3041386 33.0175207,12.8612976 32.9493298,15.5889338 C32.1395628,15.6272912 31.3937247,15.6464699 30.7118157,15.6464699 C30.0085969,15.6464699 29.134901,15.6272912 28.0907277,15.5889338 C28.0225368,15.5889338 27.9628697,15.5633622 27.9117266,15.512219 C27.8605834,15.4610759 27.8350117,15.4014083 27.8350115,15.3332163 C27.7668206,12.1282437 27.7327251,9.65632332 27.7327251,7.9174552 C27.7327251,7.12899785 27.741249,6.02728852 27.7582967,4.61232721 C26.7780524,4.59101755 25.8319036,4.56757693 24.9198502,4.54200534 C24.8516593,4.54200534 24.7919923,4.51643375 24.7408491,4.46529057 C24.6897059,4.41414739 24.6641342,4.3544798 24.664134,4.2862878 C24.6470863,3.30604352 24.6385624,2.60708673 24.6385624,2.18941743 L24.6385624,2.18941907 Z M44.865692,7.9169315 C44.865692,5.53024977 44.8997874,2.97309079 44.9679783,0.245454531 C45.7777453,0.207097146 46.5235834,0.187918454 47.2054924,0.187918454 C47.9087112,0.187918454 48.7824072,0.207097146 49.8265804,0.245454531 C49.8947713,0.245454531 49.9544384,0.271026121 50.0055815,0.322169301 C50.0567247,0.373312481 50.0822964,0.432980069 50.0822966,0.501172067 C50.1504875,3.70614467 50.184583,6.17806502 50.184583,7.91693313 C50.184583,10.3036149 50.1504875,12.8607738 50.0822966,15.5884101 C49.2725296,15.6267675 48.5266916,15.6459462 47.8447825,15.6459462 C47.1415638,15.6459462 46.2678678,15.6267675 45.2236946,15.5884101 C45.1555037,15.5884101 45.0958366,15.5628385 45.0446934,15.5116953 C44.9935502,15.4605521 44.9679785,15.4008846 44.9679783,15.3326926 C44.8997874,12.12772 44.865692,9.65579961 44.865692,7.9169315 Z M51.2330159,2.18941907 C51.2330159,1.50324807 51.2415401,0.855434463 51.2585878,0.245978237 C52.0726168,0.207620853 54.0458911,0.18844216 57.1784109,0.18844216 C59.6545932,0.18844216 61.4147709,0.207620853 62.4589442,0.245978237 C62.5271351,0.245978237 62.5868021,0.271549827 62.6379453,0.322693007 C62.6890885,0.373836187 62.7146602,0.433503775 62.7146604,0.501695773 C62.7317081,1.46489233 62.740232,2.18942071 62.740232,2.67528091 C62.740232,3.36997577 62.7317081,4.00926552 62.7146604,4.59315015 C62.4376348,4.60593595 61.4062474,4.62085271 59.620498,4.63790044 C59.6375458,5.55847767 59.6460696,6.65166314 59.6460696,7.91745684 C59.6460696,10.3041386 59.6119742,12.8612976 59.5437833,15.5889338 C58.7340162,15.6272912 57.9881782,15.6464699 57.3062691,15.6464699 C56.6030504,15.6464699 55.7293544,15.6272912 54.6851812,15.5889338 C54.6169903,15.5889338 54.5573232,15.5633622 54.50618,15.512219 C54.4550369,15.4610759 54.4294652,15.4014083 54.429465,15.3332163 C54.361274,12.1282437 54.3271786,9.65632332 54.3271786,7.9174552 C54.3271786,7.12899785 54.3357025,6.02728852 54.3527502,4.61232721 C53.3725059,4.59101755 52.4263571,4.56757693 51.5143037,4.54200534 C51.4461128,4.54200534 51.3864458,4.51643375 51.3353026,4.46529057 C51.2841594,4.41414739 51.2585877,4.3544798 51.2585875,4.2862878 C51.2415398,3.30604352 51.2330159,2.60708673 51.2330159,2.18941743 L51.2330159,2.18941907 Z M71.4601455,7.9169315 C71.4601455,5.53024977 71.4942409,2.97309079 71.5624318,0.245454531 C72.3721988,0.207097146 73.1180369,0.187918454 73.7999459,0.187918454 C74.5031646,0.187918454 75.3768606,0.207097146 76.4210339,0.245454531 C76.4892248,0.245454531 76.5488918,0.271026121 76.600035,0.322169301 C76.6511782,0.373312481 76.6767499,0.432980069 76.6767501,0.501172067 C76.744941,3.70614467 76.7790365,6.17806502 76.7790365,7.91693313 C76.7790365,10.3036149 76.744941,12.8607738 76.6767501,15.5884101 C75.8669831,15.6267675 75.1211451,15.6459462 74.439236,15.6459462 C73.7360173,15.6459462 72.8623213,15.6267675 71.818148,15.5884101 C71.7499571,15.5884101 71.6902901,15.5628385 71.6391469,15.5116953 C71.5880037,15.4605521 71.562432,15.4008846 71.5624318,15.3326926 C71.4942409,12.12772 71.4601455,9.65579961 71.4601455,7.9169315 Z M78.6201906,7.9169315 C78.6201906,5.53024977 78.6542861,2.97309079 78.722477,0.245454531 C79.532244,0.207097146 80.2354627,0.187918454 80.8321331,0.187918454 C81.339303,0.187918454 82.0766172,0.207097146 83.0440757,0.245454531 C83.1676717,0.249716463 83.2614342,0.334955096 83.3253632,0.50117043 L85.9720432,7.04749744 L85.8825431,0.245470897 C86.696572,0.207113512 87.4424101,0.187918454 88.1200572,0.187918454 C88.7849185,0.187918454 89.5733759,0.207113512 90.4854293,0.245470897 C90.5578821,0.249732829 90.6186146,0.276369902 90.6676268,0.325382115 C90.7166391,0.374394329 90.741145,0.432997049 90.7411447,0.501190274 C90.8093356,3.70616287 90.8434311,6.17808323 90.8434311,7.91695134 C90.8434311,10.3036331 90.8093356,12.8607921 90.7411447,15.5884283 C90.0336641,15.6267857 89.3730647,15.6459644 88.7593465,15.6459644 C88.0305562,15.6459644 87.2506227,15.6267857 86.419546,15.5884283 C86.2916881,15.5841664 86.1979256,15.4989277 86.1382585,15.3327124 L83.4915785,8.7863854 L83.5810786,15.5884119 C82.7713116,15.6267693 82.0680929,15.6459644 81.4714224,15.6459644 C80.7980372,15.6459644 79.9669606,15.6267693 78.9781924,15.5884119 C78.9057396,15.58415 78.8450071,15.5575129 78.7959948,15.5085007 C78.7469826,15.4594885 78.7224767,15.4008858 78.722477,15.3326926 C78.6542861,12.12772 78.6201906,9.65579961 78.6201906,7.9169315 L78.6201906,7.9169315 Z" id="Shape"></path>
                </g>
                <g id="SvgjsG1114" transform="translate(0.627945, 23.221779)" fill="#000000">
                    <path d="M0.0624925852,0.102489028 C0.302050997,0.073846261 0.574808255,0.0595248775 0.880765084,0.0595248775 C1.10209556,0.0595248775 1.31105756,0.0660345973 1.5076511,0.0790540368 C1.53238803,0.0803559808 1.556474,0.0881676445 1.57990899,0.102489028 C1.60334398,0.116810411 1.61896764,0.135037793 1.62677997,0.157171174 C1.75046464,0.536036864 1.91711347,1.10368443 2.12672645,1.86011386 C2.32852776,1.12972331 2.49582756,0.562075743 2.62862584,0.157171174 C2.6364375,0.135038127 2.65206083,0.116810911 2.67549582,0.102489528 C2.69893081,0.0881681444 2.72301624,0.0803564474 2.74775209,0.0790544368 C2.94434562,0.0660349972 3.15330763,0.0595248775 3.3746381,0.0595248775 C3.68059493,0.0595248775 3.95335219,0.073846661 4.19290988,0.102489428 C3.98720273,0.978697708 3.76977809,1.64268912 3.54063596,2.09446368 C3.37789296,2.37307968 3.16762901,2.61849612 2.90984411,2.83071298 C2.92025966,3.69129793 2.92676938,4.33510922 2.92937327,4.76214684 C2.68200392,4.77386433 2.44895595,4.77972308 2.23022937,4.77972308 C2.00499306,4.77972308 1.73288678,4.77386433 1.41391051,4.76214684 C1.39307941,4.76214684 1.37485219,4.75433517 1.35922886,4.73871184 C1.34360554,4.72308852 1.33579384,4.70486113 1.33579377,4.6840297 C1.33579377,4.29474846 1.3396996,3.67697605 1.34751127,2.83071248 C1.08582053,2.61458979 0.87425464,2.36917335 0.71281359,2.09446318 C0.486275342,1.6478964 0.269501674,0.983904984 0.0624925852,0.102488928 L0.0624925852,0.102489028 Z M4.30422227,2.4165213 C4.30422227,2.03765561 4.34523694,1.70012664 4.42725941,1.40393439 C4.50928188,1.10774214 4.62743323,0.86070192 4.78171347,0.66281373 C4.9359937,0.464925539 5.12282703,0.311941917 5.34221346,0.203862863 C5.56159989,0.0957838086 5.80929337,0.0345930261 6.08529391,0.0202905154 C6.33917298,0.0202905154 6.56571123,0.0375412728 6.76490865,0.0720427875 C6.96410608,0.106544302 7.14669986,0.162527642 7.31269001,0.239992808 C7.47868016,0.317457973 7.620265,0.418032539 7.73744454,0.541716506 C7.85462408,0.665400474 7.95389745,0.815771042 8.03526465,0.992828212 C8.11663186,1.16988538 8.17652145,1.37624996 8.21493342,1.61192193 C8.25334539,1.84759391 8.27254325,2.11579187 8.27254325,2.4165158 C8.27254325,2.79538149 8.23088105,3.13291046 8.14755663,3.42910271 C8.06423222,3.72529496 7.94412774,3.97201521 7.78724321,4.16926347 C7.63035867,4.36651173 7.44189884,4.51884209 7.22186373,4.62625455 C7.00182862,4.733667 6.75316191,4.79453249 6.4758636,4.808851 C6.22328647,4.808851 5.99772468,4.79160024 5.79917823,4.75709873 C5.60063177,4.72259721 5.41901122,4.66693917 5.25431656,4.5901246 C5.0896219,4.51331003 4.94901028,4.41338606 4.83248172,4.29035269 C4.71595315,4.16731932 4.61765701,4.01726872 4.53759329,3.84020088 C4.45752957,3.66313305 4.39861721,3.45710177 4.36085621,3.22210705 C4.32309521,2.98711234 4.30422227,2.71858109 4.30422227,2.4165133 L4.30422227,2.4165213 Z M5.93684693,2.4165213 C5.93684693,2.59879345 5.94303116,2.75372478 5.95539963,2.88131529 C5.9677681,3.0089058 5.98339176,3.10948036 6.00227061,3.18303899 C6.02114946,3.25659761 6.04686271,3.31355818 6.07941035,3.35392069 C6.11195799,3.39428321 6.14450651,3.42032175 6.1770559,3.43203633 C6.20960529,3.44375091 6.24931437,3.44961245 6.29618314,3.44961245 C6.34305192,3.44961245 6.3821104,3.44375658 6.4133586,3.43203633 C6.4446068,3.42031609 6.47585412,3.39427754 6.50710057,3.35392069 C6.53834701,3.31356385 6.56275906,3.25660328 6.58033672,3.18303899 C6.59791438,3.1094747 6.61223552,3.00890013 6.62330013,2.88131529 C6.63436473,2.75373045 6.63989995,2.59880037 6.63989995,2.41652505 C6.63989995,2.26549955 6.63599412,2.13302675 6.62818245,2.01910666 C6.62037079,1.90518656 6.60800238,1.81112063 6.59107722,1.73690887 C6.57415207,1.6626971 6.55592469,1.60183162 6.53639508,1.55431241 C6.51686547,1.50679321 6.49180282,1.47131567 6.46120713,1.44787981 C6.43061144,1.42444394 6.40131724,1.40849498 6.37332454,1.40003293 C6.34533183,1.39157088 6.31180742,1.38733909 6.2727513,1.38733909 C6.23369518,1.38733909 6.20082137,1.39124443 6.17412986,1.39905664 C6.14743835,1.40686884 6.12042258,1.4228178 6.09308254,1.44690351 C6.0657425,1.47098923 6.04328357,1.50679206 6.02570575,1.55431201 C6.00812793,1.60183197 5.99217897,1.66302275 5.97785887,1.73788436 C5.96353877,1.81274597 5.95312322,1.9064866 5.94661222,2.01910626 C5.94010122,2.13172591 5.93684693,2.26419839 5.93684693,2.41652371 L5.93684693,2.4165213 Z M8.5303281,2.44779795 C8.5303281,1.69918018 8.54075083,0.908249225 8.56158193,0.0750050951 C8.80895128,0.0632875995 9.03679148,0.0574233273 9.24510251,0.0574233273 C9.45992326,0.0574233273 9.72682177,0.0632875995 10.045798,0.0750050951 C10.0666291,0.0750050951 10.0848564,0.0828167588 10.1004797,0.0984400862 C10.116103,0.114063414 10.1239147,0.132290796 10.1239148,0.153122232 C10.1447459,1.13218408 10.1551614,1.97584377 10.1551614,2.68410128 C10.1551614,2.85465593 10.1610202,2.99331297 10.1727377,3.10007237 C10.1844552,3.20683177 10.2046357,3.28787776 10.2332792,3.34321034 C10.2619227,3.39854292 10.2938206,3.43532298 10.3289729,3.45355053 C10.3641253,3.47177808 10.4103443,3.48089163 10.4676301,3.4808912 C10.5444448,3.4808912 10.6023813,3.46331496 10.6414396,3.42816247 C10.6804979,3.39300998 10.710768,3.31717144 10.7322499,3.20064683 C10.7537318,3.08412222 10.7644728,2.91128739 10.7644729,2.68214234 C10.7644729,1.77729129 10.7748884,0.9082437 10.7957195,0.0749995707 C11.0443908,0.0632820751 11.272231,0.0574233273 11.4792401,0.0574233273 C11.6940608,0.0574233273 11.9609593,0.0632820751 12.2799356,0.0749995707 C12.3007667,0.0749995707 12.3189939,0.0828112344 12.3346173,0.0984345618 C12.3502406,0.114057889 12.3580523,0.132285271 12.3580523,0.153116708 C12.3788835,1.13217856 12.389299,1.89707063 12.389299,2.44779292 C12.389299,2.78239252 12.3639111,3.07988671 12.3131353,3.3402755 C12.2623595,3.6006643 12.1894499,3.82232057 12.0944067,4.00524432 C11.9993635,4.18816807 11.8799096,4.34016513 11.7360451,4.4612355 C11.5921805,4.58230587 11.4310645,4.67279085 11.2526968,4.73269044 C11.0743292,4.79259003 10.8725241,4.82839286 10.6472816,4.84009894 C10.4637075,4.84009894 10.2983606,4.83261276 10.151241,4.81764041 C10.0041213,4.80266805 9.86156324,4.7776054 9.72356676,4.74245246 C9.58557028,4.70729951 9.46383798,4.66010456 9.35836986,4.60086761 C9.25290173,4.54163066 9.15427896,4.46807054 9.06250153,4.38018724 C8.97072411,4.29230394 8.89293244,4.18814842 8.82912652,4.06772069 C8.7653206,3.94729296 8.71031315,3.80830784 8.66410418,3.65076533 C8.61789521,3.49322282 8.58404417,3.31453528 8.56255105,3.11470272 C8.54105794,2.91487015 8.5303281,2.69256062 8.5303281,2.44777411 L8.5303281,2.44779795 Z M12.8189402,2.31693196 C12.8189402,2.05654317 12.821544,1.69590469 12.8267518,1.23501653 C12.8319596,0.774128375 12.8345635,0.413486984 12.8345634,0.153092361 C13.0949522,0.112732098 13.3719408,0.0805089852 13.6655291,0.0564230221 C13.9591175,0.0323370589 14.21593,0.0202940899 14.4359666,0.0202940899 C14.6260505,0.0202940899 14.7855386,0.0232234638 14.914431,0.0290822116 C15.0433235,0.0349409593 15.1823086,0.0479603655 15.3313864,0.0681404302 C15.4804642,0.0883204948 15.6031724,0.117289393 15.699511,0.155047126 C15.7958496,0.192804859 15.8921939,0.244883284 15.988544,0.3112824 C16.0848941,0.377681517 16.1600808,0.458402209 16.2141039,0.553444476 C16.268127,0.648486742 16.3120677,0.765010268 16.3459258,0.903015052 C16.3797839,1.04101984 16.3967088,1.1992029 16.3967004,1.37756425 C16.3967004,1.66008609 16.3237915,1.90875738 16.1779738,2.12357813 C16.032156,2.33839889 15.8290578,2.50699417 15.568679,2.62936399 C15.7457434,2.69055535 15.8896082,2.81554197 16.0002734,3.00432384 C16.2593603,3.51338393 16.4663694,4.09925871 16.6213007,4.76194818 C16.381743,4.79059095 16.1089857,4.80491233 15.8030289,4.80491233 C15.5816984,4.80491233 15.3727364,4.79840261 15.1761429,4.78538317 C15.151406,4.78408123 15.12732,4.77626956 15.103885,4.76194818 C15.08045,4.7476268 15.0648264,4.72939942 15.057014,4.70726604 C14.803135,3.93651522 14.6058904,3.31418601 14.4652805,2.84027841 L14.3617756,2.84027841 C14.3643795,2.98609613 14.3705637,3.28489227 14.3803283,3.73666682 C14.3900929,4.18844137 14.3956261,4.53020478 14.3969281,4.76195706 C14.1834093,4.77107066 13.9549181,4.77562747 13.7114546,4.77562747 C13.4914261,4.77562747 13.2251785,4.77107066 12.912712,4.76195706 C12.8905789,4.76195706 12.8720262,4.75447088 12.8570539,4.73949852 C12.8420815,4.72452617 12.8345954,4.70597349 12.8345955,4.68384048 C12.8345955,4.44298085 12.8319916,4.05435058 12.8267838,3.51794967 C12.8215761,2.98154876 12.8189402,2.58120495 12.8189402,2.31691825 L12.8189402,2.31693196 Z M14.3578528,1.87950141 L14.4906532,1.87950141 C14.6143379,1.87950141 14.7142621,1.84857762 14.7904258,1.78673528 C14.8665895,1.72489294 14.9046696,1.64319636 14.9046696,1.54164552 C14.9046696,1.41405501 14.8786307,1.31933859 14.8265529,1.25749625 C14.7744752,1.19565392 14.6820371,1.16473418 14.5492386,1.16473418 C14.4815375,1.16473418 14.4190442,1.1666871 14.3617587,1.17059293 C14.3591548,1.47524782 14.3578528,1.71155064 14.3578528,1.87950141 L14.3578528,1.87950141 Z M19.0135899,0.668828398 C19.0135899,0.459215422 19.0161939,0.261319941 19.0214016,0.0751419556 C19.2700729,0.06342446 19.872873,0.0575657123 20.8298018,0.0575657123 C21.5862312,0.0575657123 22.1239341,0.06342446 22.4429104,0.0751419556 C22.4637415,0.0751419556 22.4819687,0.0829536193 22.497592,0.0985769468 C22.5132153,0.114200274 22.521027,0.132427656 22.5210271,0.153259093 C22.5262349,0.447498426 22.5288388,0.668828898 22.5288388,0.817250509 C22.5288388,1.02946737 22.5262349,1.22475897 22.5210271,1.40312529 C22.4364007,1.40703112 22.1213303,1.41158792 21.5758158,1.4167957 C21.5810236,1.69801559 21.5836274,2.03196422 21.5836274,2.41864157 C21.5836274,3.14773018 21.5732119,3.92889656 21.5523808,4.76214069 C21.3050114,4.77385818 21.0771713,4.77971693 20.8688602,4.77971693 C20.6540395,4.77971693 20.387141,4.77385818 20.0681647,4.76214069 C20.0473336,4.76214069 20.0291064,4.75432902 20.013483,4.73870569 C19.9978597,4.72308237 19.990048,4.70485499 19.990048,4.68402355 C19.9692168,3.7049617 19.9588013,2.9498342 19.9588013,2.41864107 C19.9588013,2.17778144 19.9614052,1.84122893 19.966613,1.40898354 C19.6671659,1.40247382 19.3781343,1.39531312 19.0995183,1.38750146 C19.0786872,1.38750146 19.06046,1.3796898 19.0448366,1.36406647 C19.0292133,1.34844314 19.0214016,1.33021576 19.0214015,1.30938432 C19.0161938,1.00993721 19.0135899,0.796418406 19.0135899,0.668827898 L19.0135899,0.668828398 Z M22.8491174,2.41848109 C22.8491174,1.68939247 22.8595329,0.908226103 22.880364,0.0749819727 C23.1277334,0.0632644772 23.3555736,0.0574057294 23.5638846,0.0574057294 C23.7787054,0.0574057294 24.0456039,0.0632644772 24.3645801,0.0749819727 C24.3854112,0.0749819727 24.4036385,0.0827936365 24.4192618,0.0984169639 C24.4348851,0.114040291 24.4426968,0.132267673 24.4426969,0.15309911 C24.463528,1.13216096 24.4739435,1.88728845 24.4739435,2.41848159 C24.4739435,3.1475702 24.463528,3.92873657 24.4426969,4.7619807 C24.1953275,4.7736982 23.9674873,4.77955695 23.7591763,4.77955695 C23.5443555,4.77955695 23.277457,4.7736982 22.9584808,4.7619807 C22.9376497,4.7619807 22.9194224,4.75416904 22.9037991,4.73854571 C22.8881758,4.72292238 22.8803641,4.704695 22.880364,4.68386357 C22.8595329,3.70480171 22.8491174,2.94967422 22.8491174,2.41848109 Z M25.0363832,2.41848109 C25.0363832,1.68939247 25.0467988,0.908226103 25.0676299,0.0749819727 C25.3149992,0.0632644772 25.52982,0.0574057294 25.7120921,0.0574057294 C25.9308187,0.0574057294 26.156055,0.0632644772 26.387801,0.0749819727 C26.4255574,0.0762839167 26.4542002,0.102322796 26.4737293,0.15309861 L27.4541044,2.15288452 L28.4344794,0.15309861 C28.4709339,0.104926684 28.5028315,0.0795387766 28.5301723,0.0769348887 C28.6929153,0.0639154492 28.8758384,0.0574057294 29.0789417,0.0574057294 C29.2976683,0.0574057294 29.5385279,0.0632644772 29.8015206,0.0749819727 C29.8236536,0.0762839167 29.8422063,0.0844210664 29.8571787,0.0993934219 C29.872151,0.114365777 29.8796372,0.132267861 29.8796371,0.153099672 C29.9004682,1.13216152 29.9108837,1.88728902 29.9108837,2.41848215 C29.9108837,3.14757076 29.9004682,3.92873714 29.8796371,4.76198127 C29.6557027,4.77369876 29.4539014,4.77955857 29.2742331,4.77955857 C29.1114901,4.77955857 28.8706305,4.77369876 28.5516542,4.76198127 C28.5308231,4.76198127 28.5125959,4.7541696 28.4969726,4.73854627 C28.4813493,4.72292295 28.4735376,4.70469556 28.4735375,4.68386413 C28.4696317,4.53804641 28.4637729,4.31964531 28.4559613,4.02866083 C28.4481496,3.73767636 28.4416399,3.47338465 28.4364322,3.23578572 C28.4312244,2.99818678 28.4279696,2.7706778 28.4266676,2.55325878 L27.5361229,4.37142414 L27.4501961,4.38704767 L27.3720805,4.37142414 L26.5245312,2.64112938 L26.5518719,4.76198233 C26.3045026,4.77369982 26.0896818,4.77955857 25.9074097,4.77955857 C25.7186278,4.77955857 25.4647487,4.77369982 25.1457724,4.76198233 C25.1249413,4.76198233 25.1067141,4.75417066 25.0910908,4.73854734 C25.0754675,4.72292401 25.0676558,4.70469663 25.0676557,4.68386519 C25.0468246,3.70480334 25.0363832,2.94967585 25.0363832,2.41848271 L25.0363832,2.41848109 Z M30.4732893,2.41848109 C30.4732893,1.68939247 30.4837167,0.908226103 30.5045478,0.0749819727 C30.7519172,0.0632644772 31.2922239,0.0574057294 32.125468,0.0574057294 C32.7152486,0.0574057294 33.1696271,0.0632644772 33.4886034,0.0749819727 C33.5094345,0.0749819727 33.5276617,0.0827936365 33.543285,0.0984169639 C33.5589083,0.114040291 33.56672,0.132267673 33.5667201,0.15309911 C33.5719279,0.470773434 33.5745318,0.696009738 33.5745318,0.828808021 C33.5745318,1.03321322 33.5719279,1.22459898 33.5667201,1.4029653 C33.3466916,1.41338086 32.9326734,1.41858863 32.3246656,1.41858863 C32.2153023,1.41858863 32.1163545,1.41793766 32.0278223,1.41663572 C32.0252184,1.59630398 32.0232655,1.7330081 32.0219636,1.82674806 C32.4880595,1.82935195 32.7998751,1.83390875 32.9574103,1.84041847 C32.9782414,1.84041847 32.9964686,1.84823014 33.012092,1.86385346 C33.0277153,1.87947679 33.035527,1.89770417 33.0355271,1.91853561 C33.0394329,2.13205442 33.0413858,2.32799698 33.0413858,2.5063633 C33.0413858,2.66650241 33.0394329,2.84031193 33.0355271,3.02779186 L32.0219556,3.02779186 C32.0232575,3.11892793 32.0252104,3.25433011 32.0278143,3.43399837 L32.1215563,3.43399837 C32.7595088,3.43399837 33.220397,3.43920615 33.5042208,3.4496217 C33.5250519,3.4496217 33.5432791,3.45743336 33.5589024,3.47305669 C33.5745257,3.48868002 33.5823374,3.5069074 33.5823375,3.52773884 C33.5875453,3.84541316 33.5901492,4.07064946 33.5901492,4.20344775 C33.5901492,4.40785295 33.5875453,4.59923871 33.5823375,4.77760503 C33.3349681,4.78932253 32.8884014,4.79518127 32.2426372,4.79518127 C32.1137447,4.79518127 31.83936,4.79094996 31.4194831,4.78248732 C30.9996062,4.77402468 30.7206627,4.76718942 30.5826527,4.76198152 C30.5618216,4.76198152 30.5435944,4.75416985 30.527971,4.73854652 C30.5123477,4.7229232 30.504536,4.70469581 30.504536,4.68386438 C30.4837048,3.70480253 30.4732893,2.94967503 30.4732893,2.4184819 L30.4732893,2.41848109 Z M33.8889505,4.08822233 C33.8889505,3.91766767 33.8909034,3.73865038 33.8948092,3.55117045 C34.0848931,3.54205684 34.2775808,3.53750004 34.4728724,3.53750004 C34.644729,3.53750004 34.8686633,3.54205684 35.1446754,3.55117045 C35.1655065,3.55117045 35.1837338,3.55898212 35.1993571,3.57460544 C35.2149804,3.59022877 35.2227921,3.60845615 35.2227922,3.62928759 C35.226698,3.84020251 35.2286509,4.04005091 35.2286509,4.22883278 C35.2286509,4.39678355 35.226698,4.5744989 35.2227922,4.76197883 C35.1056172,4.76848855 34.9643563,4.77174341 34.7990094,4.77174341 C34.5594517,4.77174341 34.2840906,4.76328077 33.972926,4.7463555 C33.9507929,4.74505356 33.9322402,4.73691641 33.9172679,4.72194405 C33.9022955,4.7069717 33.8948094,4.68906961 33.8948095,4.6682378 C33.8909036,4.4638326 33.8889505,4.27049392 33.8889505,4.08822177 L33.8889505,4.08822233 Z M37.7069,0.102489028 C37.9464584,0.073846261 38.2192157,0.0595248775 38.5251725,0.0595248775 C38.746503,0.0595248775 38.955465,0.0660345973 39.1520585,0.0790540368 C39.1767955,0.0803559808 39.2008814,0.0881676445 39.2243164,0.102489028 C39.2477514,0.116810411 39.2633751,0.135037793 39.2711874,0.157171174 C39.3948721,0.536036864 39.5615209,1.10368443 39.7711339,1.86011386 C39.9729352,1.12972331 40.140235,0.562075743 40.2730333,0.157171174 C40.280845,0.135038127 40.2964683,0.116810911 40.3199033,0.102489528 C40.3433383,0.0881681444 40.3674237,0.0803564474 40.3921595,0.0790544368 C40.5887531,0.0660349972 40.7977151,0.0595248775 41.0190456,0.0595248775 C41.3250024,0.0595248775 41.5977596,0.073846661 41.8373173,0.102489428 C41.6316102,0.978697708 41.4141855,1.64268912 41.1850434,2.09446368 C41.0223004,2.37307968 40.8120365,2.61849612 40.5542516,2.83071298 C40.5646671,3.69129793 40.5711768,4.33510922 40.5737807,4.76214684 C40.3264114,4.77386433 40.0933634,4.77972308 39.8746368,4.77972308 C39.6494005,4.77972308 39.3772942,4.77386433 39.058318,4.76214684 C39.0374869,4.76214684 39.0192596,4.75433517 39.0036363,4.73871184 C38.988013,4.72308852 38.9802013,4.70486113 38.9802012,4.6840297 C38.9802012,4.29474846 38.9841071,3.67697605 38.9919187,2.83071248 C38.730228,2.61458979 38.5186621,2.36917335 38.357221,2.09446318 C38.1306828,1.6478964 37.9139091,0.983904984 37.7069,0.102488928 L37.7069,0.102489028 Z M41.9486297,2.4165213 C41.9486297,2.03765561 41.9896444,1.70012664 42.0716669,1.40393439 C42.1536893,1.10774214 42.2718407,0.86070192 42.4261209,0.66281373 C42.5804011,0.464925539 42.7672345,0.311941917 42.9866209,0.203862863 C43.2060073,0.0957838086 43.4537008,0.0345930261 43.7297014,0.0202905154 C43.9835804,0.0202905154 44.2101187,0.0375412728 44.4093161,0.0720427875 C44.6085135,0.106544302 44.7911073,0.162527642 44.9570975,0.239992808 C45.1230876,0.317457973 45.2646724,0.418032539 45.381852,0.541716506 C45.4990315,0.665400474 45.5983049,0.815771042 45.6796721,0.992828212 C45.7610393,1.16988538 45.8209289,1.37624996 45.8593409,1.61192193 C45.8977528,1.84759391 45.9169507,2.11579187 45.9169507,2.4165158 C45.9169507,2.79538149 45.8752885,3.13291046 45.7919641,3.42910271 C45.7086397,3.72529496 45.5885352,3.97201521 45.4316507,4.16926347 C45.2747661,4.36651173 45.0863063,4.51884209 44.8662712,4.62625455 C44.6462361,4.733667 44.3975694,4.79453249 44.120271,4.808851 C43.8676939,4.808851 43.6421321,4.79160024 43.4435857,4.75709873 C43.2450392,4.72259721 43.0634187,4.66693917 42.898724,4.5901246 C42.7340293,4.51331003 42.5934177,4.41338606 42.4768892,4.29035269 C42.3603606,4.16731932 42.2620645,4.01726872 42.1820007,3.84020088 C42.101937,3.66313305 42.0430247,3.45710177 42.0052637,3.22210705 C41.9675027,2.98711234 41.9486297,2.71858109 41.9486297,2.4165133 L41.9486297,2.4165213 Z M43.5812544,2.4165213 C43.5812544,2.59879345 43.5874386,2.75372478 43.5998071,2.88131529 C43.6121755,3.0089058 43.6277992,3.10948036 43.6466781,3.18303899 C43.6655569,3.25659761 43.6912702,3.31355818 43.7238178,3.35392069 C43.7563654,3.39428321 43.788914,3.42032175 43.8214633,3.43203633 C43.8540127,3.44375091 43.8937218,3.44961245 43.9405906,3.44961245 C43.9874594,3.44961245 44.0265179,3.44375658 44.0577661,3.43203633 C44.0890142,3.42031609 44.1202616,3.39427754 44.151508,3.35392069 C44.1827545,3.31356385 44.2071665,3.25660328 44.2247442,3.18303899 C44.2423218,3.1094747 44.256643,3.00890013 44.2677076,2.88131529 C44.2787722,2.75373045 44.2843074,2.59880037 44.2843074,2.41652505 C44.2843074,2.26549955 44.2804016,2.13302675 44.2725899,2.01910666 C44.2647782,1.90518656 44.2524098,1.81112063 44.2354847,1.73690887 C44.2185595,1.6626971 44.2003321,1.60183162 44.1808025,1.55431241 C44.1612729,1.50679321 44.1362103,1.47131567 44.1056146,1.44787981 C44.0750189,1.42444394 44.0457247,1.40849498 44.017732,1.40003293 C43.9897393,1.39157088 43.9562149,1.38733909 43.9171588,1.38733909 C43.8781026,1.38733909 43.8452288,1.39124443 43.8185373,1.39905664 C43.7918458,1.40686884 43.76483,1.4228178 43.73749,1.44690351 C43.7101499,1.47098923 43.687691,1.50679206 43.6701132,1.55431201 C43.6525354,1.60183197 43.6365864,1.66302275 43.6222663,1.73788436 C43.6079462,1.81274597 43.5975307,1.9064866 43.5910197,2.01910626 C43.5845087,2.13172591 43.5812544,2.26419839 43.5812544,2.41652371 L43.5812544,2.4165213 Z M46.1747355,2.44779795 C46.1747355,1.69918018 46.1851583,0.908249225 46.2059894,0.0750050951 C46.4533587,0.0632875995 46.6811989,0.0574233273 46.88951,0.0574233273 C47.1043307,0.0574233273 47.3712292,0.0632875995 47.6902055,0.0750050951 C47.7110366,0.0750050951 47.7292638,0.0828167588 47.7448871,0.0984400862 C47.7605105,0.114063414 47.7683222,0.132290796 47.7683222,0.153122232 C47.7891533,1.13218408 47.7995689,1.97584377 47.7995689,2.68410128 C47.7995689,2.85465593 47.8054276,2.99331297 47.8171451,3.10007237 C47.8288626,3.20683177 47.8490431,3.28787776 47.8776866,3.34321034 C47.9063302,3.39854292 47.9382281,3.43532298 47.9733804,3.45355053 C48.0085327,3.47177808 48.0547518,3.48089163 48.1120376,3.4808912 C48.1888522,3.4808912 48.2467888,3.46331496 48.2858471,3.42816247 C48.3249054,3.39300998 48.3551755,3.31717144 48.3766574,3.20064683 C48.3981392,3.08412222 48.4088802,2.91128739 48.4088803,2.68214234 C48.4088803,1.77729129 48.4192959,0.9082437 48.440127,0.0749995707 C48.6887983,0.0632820751 48.9166384,0.0574233273 49.1236475,0.0574233273 C49.3384683,0.0574233273 49.6053668,0.0632820751 49.9243431,0.0749995707 C49.9451742,0.0749995707 49.9634014,0.0828112344 49.9790247,0.0984345618 C49.994648,0.114057889 50.0024597,0.132285271 50.0024598,0.153116708 C50.0232909,1.13217856 50.0337065,1.89707063 50.0337065,2.44779292 C50.0337065,2.78239252 50.0083185,3.07988671 49.9575427,3.3402755 C49.9067669,3.6006643 49.8338574,3.82232057 49.7388141,4.00524432 C49.6437709,4.18816807 49.524317,4.34016513 49.3804525,4.4612355 C49.236588,4.58230587 49.0754719,4.67279085 48.8971043,4.73269044 C48.7187366,4.79259003 48.5169315,4.82839286 48.2916891,4.84009894 C48.108115,4.84009894 47.9427681,4.83261276 47.7956484,4.81764041 C47.6485288,4.80266805 47.5059707,4.7776054 47.3679742,4.74245246 C47.2299777,4.70729951 47.1082454,4.66010456 47.0027773,4.60086761 C46.8973092,4.54163066 46.7986864,4.46807054 46.706909,4.38018724 C46.6151316,4.29230394 46.5373399,4.18814842 46.473534,4.06772069 C46.409728,3.94729296 46.3547206,3.80830784 46.3085116,3.65076533 C46.2623027,3.49322282 46.2284516,3.31453528 46.2069585,3.11470272 C46.1854654,2.91487015 46.1747355,2.69256062 46.1747355,2.44777411 L46.1747355,2.44779795 Z M50.4633476,2.31693196 C50.4633476,2.05654317 50.4659515,1.69590469 50.4711593,1.23501653 C50.476367,0.774128375 50.4789709,0.413486984 50.4789708,0.153092361 C50.7393596,0.112732098 51.0163482,0.0805089852 51.3099366,0.0564230221 C51.6035249,0.0323370589 51.8603374,0.0202940899 52.0803741,0.0202940899 C52.2704579,0.0202940899 52.429946,0.0232234638 52.5588385,0.0290822116 C52.6877309,0.0349409593 52.8267161,0.0479603655 52.9757939,0.0681404302 C53.1248716,0.0883204948 53.2475798,0.117289393 53.3439184,0.155047126 C53.440257,0.192804859 53.5366014,0.244883284 53.6329515,0.3112824 C53.7293016,0.377681517 53.8044882,0.458402209 53.8585114,0.553444476 C53.9125345,0.648486742 53.9564751,0.765010268 53.9903332,0.903015052 C54.0241914,1.04101984 54.0411162,1.1992029 54.0411078,1.37756425 C54.0411078,1.66008609 53.9681989,1.90875738 53.8223812,2.12357813 C53.6765635,2.33839889 53.4734652,2.50699417 53.2130864,2.62936399 C53.3901508,2.69055535 53.5340156,2.81554197 53.6446809,3.00432384 C53.9037677,3.51338393 54.1107768,4.09925871 54.2657081,4.76194818 C54.0261504,4.79059095 53.7533932,4.80491233 53.4474364,4.80491233 C53.2261059,4.80491233 53.0171439,4.79840261 52.8205503,4.78538317 C52.7958134,4.78408123 52.7717274,4.77626956 52.7482925,4.76194818 C52.7248575,4.7476268 52.7092338,4.72939942 52.7014215,4.70726604 C52.4475424,3.93651522 52.2502979,3.31418601 52.1096879,2.84027841 L52.006183,2.84027841 C52.0087869,2.98609613 52.0149711,3.28489227 52.0247357,3.73666682 C52.0345003,4.18844137 52.0400336,4.53020478 52.0413356,4.76195706 C51.8278167,4.77107066 51.5993256,4.77562747 51.3558621,4.77562747 C51.1358335,4.77562747 50.869586,4.77107066 50.5571194,4.76195706 C50.5349864,4.76195706 50.5164337,4.75447088 50.5014613,4.73949852 C50.486489,4.72452617 50.4790029,4.70597349 50.4790029,4.68384048 C50.4790029,4.44298085 50.4763991,4.05435058 50.4711913,3.51794967 C50.4659835,2.98154876 50.4633476,2.58120495 50.4633476,2.31691825 L50.4633476,2.31693196 Z M52.0022603,1.87950141 L52.1350606,1.87950141 C52.2587453,1.87950141 52.3586695,1.84857762 52.4348332,1.78673528 C52.510997,1.72489294 52.549077,1.64319636 52.549077,1.54164552 C52.549077,1.41405501 52.5230381,1.31933859 52.4709604,1.25749625 C52.4188826,1.19565392 52.3264445,1.16473418 52.1936461,1.16473418 C52.125945,1.16473418 52.0634517,1.1666871 52.0061661,1.17059293 C52.0035622,1.47524782 52.0022603,1.71155064 52.0022603,1.87950141 L52.0022603,1.87950141 Z M56.8064175,4.71511922 L56.9978051,3.30315038 C57.5732643,3.48412059 58.0348034,3.57460569 58.3824225,3.57460569 C58.5178246,3.57460569 58.6210037,3.54628841 58.6919596,3.48965385 C58.7629156,3.43301929 58.7983931,3.36955008 58.7983922,3.29924623 C58.7983922,3.27320736 58.7931845,3.24944688 58.7827689,3.2279648 C58.7723534,3.20648273 58.7538007,3.18630222 58.7271109,3.16742328 C58.7004211,3.14854435 58.6750331,3.13227009 58.650947,3.11860051 C58.6268609,3.10493093 58.5904062,3.0899592 58.5415827,3.07368532 C58.4927593,3.05741144 58.452073,3.04439203 58.4195238,3.0346271 C58.3869746,3.02486217 58.3388024,3.01086634 58.2750073,2.9926396 C58.1591343,2.960091 58.0689746,2.93372663 58.0045284,2.9135465 C57.9400822,2.89336637 57.8489466,2.85919003 57.7311217,2.81101748 C57.6132967,2.76284493 57.5192308,2.71434745 57.4489239,2.66552505 C57.378617,2.61670265 57.2982216,2.5503031 57.2077377,2.46632638 C57.1172539,2.38234966 57.0469494,2.29153938 56.9968243,2.19389554 C56.9466992,2.0962517 56.9037345,1.97744976 56.8679301,1.8374897 C56.8321257,1.69752964 56.8142236,1.54422605 56.8142238,1.37757893 C56.8142238,1.19921261 56.8304981,1.04102642 56.8630467,0.903020364 C56.8955953,0.765014305 56.9382334,0.648490779 56.990961,0.553449787 C57.0436886,0.458408795 57.1162715,0.377688104 57.2087097,0.311287712 C57.3011479,0.244887321 57.3932607,0.192808896 57.4850481,0.155052438 C57.5768356,0.11729598 57.6927085,0.0883270815 57.8326669,0.0681457418 C57.9726254,0.0479644022 58.1028194,0.034944996 58.2232491,0.0290875233 C58.3436788,0.0232300505 58.4911297,0.0202992641 58.6656018,0.0202992641 C59.0939413,0.0202992641 59.5964917,0.077584798 60.1732529,0.192155866 L59.9974917,1.49085683 C59.7982942,1.4010227 59.571105,1.32550995 59.315924,1.26431858 C59.060743,1.20312722 58.8185823,1.17253183 58.5894418,1.17253241 C58.468361,1.17253241 58.3726681,1.19173608 58.3023631,1.23014343 C58.2320582,1.26855078 58.1969059,1.32290629 58.1969064,1.39320997 C58.1969064,1.41534302 58.2024397,1.43617412 58.2135062,1.45570328 C58.2245727,1.47523244 58.244428,1.49411042 58.2730718,1.51233722 C58.3017157,1.53056402 58.3290568,1.54651298 58.3550951,1.5601841 C58.3811333,1.57385522 58.4201918,1.58980418 58.4722705,1.60803098 C58.5243492,1.62625777 58.5676393,1.64057891 58.6021406,1.65099438 L58.757396,1.69786536 C59.0776742,1.79420921 59.3191848,1.88143946 59.4819278,1.95955609 C59.9089654,2.16396129 60.1810717,2.44387924 60.2982467,2.79930994 C60.3451166,2.94252378 60.3685516,3.09875705 60.3685516,3.26800977 C60.3685516,3.44247026 60.3513009,3.60130742 60.3167994,3.74452125 C60.2822979,3.88773509 60.2347763,4.01174581 60.1742346,4.11655342 C60.113693,4.22136104 60.0378544,4.31379914 59.946719,4.39386774 C59.8555835,4.47393633 59.7572874,4.53935866 59.6518306,4.59013472 C59.5463737,4.64091079 59.4272465,4.6822477 59.2944488,4.71414545 C59.1616512,4.7460432 59.0278788,4.76850213 58.8931318,4.78152224 C58.7583847,4.79454234 58.6122404,4.80105134 58.4546987,4.80105134 C57.9091842,4.80105134 57.3597638,4.77240858 56.8064175,4.71512304 L56.8064175,4.71511922 Z M60.7591204,2.41848109 C60.7591204,2.15679035 60.7617243,1.77727369 60.7669321,1.2799311 C60.7721398,0.782588511 60.7747437,0.406975389 60.7747436,0.153091735 C61.3515048,0.0645595467 61.8592629,0.0202934523 62.298018,0.0202934523 C62.507631,0.0202934523 62.6863228,0.0248502561 62.8340935,0.0339638638 C62.9818641,0.0430774714 63.1348477,0.0626060475 63.2930443,0.0925495918 C63.4512409,0.122493136 63.5830628,0.164480641 63.68851,0.218512107 C63.7939572,0.272543572 63.8961596,0.345126469 63.9951172,0.436260796 C64.0940748,0.527395122 64.1718665,0.63773531 64.2284922,0.767281358 C64.2851179,0.896827406 64.3303611,1.05371728 64.3642217,1.23795097 C64.3980822,1.42218466 64.4149962,1.63277545 64.4149962,1.86972334 C64.4149962,2.03376827 64.4052316,2.18479377 64.3857025,2.32279983 C64.3661733,2.46080589 64.3381816,2.58546721 64.3017275,2.69678379 C64.2652733,2.80810038 64.2187289,2.90867494 64.1620944,2.99850749 C64.1054599,3.08834004 64.042316,3.16743291 63.9726627,3.23578609 C63.9030094,3.30413927 63.8229393,3.36370356 63.7324524,3.41447896 C63.6419655,3.46525436 63.5465984,3.50789246 63.446351,3.54239327 C63.3461037,3.57689407 63.2347876,3.60456044 63.1124028,3.62539238 C62.990018,3.64622432 62.8653567,3.66119605 62.7384188,3.67030757 C62.611481,3.6794191 62.4724959,3.68397594 62.3214635,3.68397811 C62.331879,4.28287233 62.3370868,4.64220886 62.3370868,4.7619877 C62.0936233,4.77240325 61.8644811,4.77761103 61.6496604,4.77761103 C61.4751999,4.77761103 61.2096033,4.77240325 60.8528707,4.7619877 C60.8320396,4.7619877 60.8138124,4.75417604 60.798189,4.73855271 C60.7825657,4.72292938 60.774754,4.704702 60.774754,4.68387056 C60.774754,4.44301093 60.7721501,4.07130593 60.7669423,3.56875557 C60.7617345,3.0662052 60.7591204,2.68277958 60.7591204,2.41847871 L60.7591204,2.41848109 Z M62.3058348,2.40288276 L62.4288696,2.40288276 C62.4770416,2.40288276 62.5183783,2.40027887 62.5528798,2.39507109 C62.5873813,2.38986332 62.6231841,2.37716934 62.6602883,2.35698917 C62.6973924,2.336809 62.7273372,2.30881733 62.7501227,2.27301416 C62.7729081,2.23721099 62.7917861,2.18741099 62.8067566,2.12361415 C62.8217271,2.05981732 62.829215,1.98300287 62.829215,1.89317083 C62.829215,1.80594058 62.8282386,1.73596109 62.8262856,1.68323236 C62.8243327,1.63050363 62.818474,1.58200616 62.8087095,1.53773994 C62.798945,1.49347372 62.7872275,1.4609252 62.7735569,1.44009439 C62.7598863,1.41926358 62.7387299,1.4010362 62.7100877,1.38541225 C62.6814455,1.36978829 62.6505248,1.36034917 62.6173256,1.35709488 C62.5841264,1.35384058 62.5395352,1.3522126 62.4835519,1.3522126 L62.3058348,1.3522126 L62.3058348,2.40290012 L62.3058348,2.40288276 Z M64.4911429,4.6975451 C64.4911429,4.676714 64.5035113,4.5953425 64.5282483,4.45343061 C64.5972513,4.02509105 64.6760189,3.58145365 64.7645511,3.1225184 C64.8530833,2.66358316 64.967655,2.09397747 65.1082663,1.41370134 C65.2488776,0.733425212 65.3406651,0.287179651 65.3836288,0.074964662 C65.6440176,0.0632471664 66.0020522,0.0573884186 66.4577326,0.0573884186 C66.8821663,0.0573884186 67.2532203,0.0632471664 67.5708946,0.074964662 C67.5917258,0.074964662 67.6112549,0.0824508397 67.6294821,0.0974231952 C67.6477093,0.112395551 67.6587759,0.130948231 67.6626818,0.153081237 C67.7199673,0.443414738 67.8172876,0.917973309 67.9546427,1.57675695 C68.0919978,2.23554059 68.2091732,2.81783825 68.3061691,3.32364993 C68.4031649,3.82946162 68.486164,4.30890362 68.5551664,4.76197595 C68.309099,4.77369345 68.0825608,4.7795522 67.8755517,4.7795522 C67.543556,4.7795522 67.2883749,4.77369345 67.1100086,4.76197595 C67.0878756,4.76067401 67.0680209,4.75253686 67.0504447,4.7375645 C67.0328684,4.72259215 67.0221275,4.70469007 67.0182217,4.68385825 C66.9596343,4.38441114 66.9121133,4.12402235 66.8756589,3.90269188 L66.1511364,3.90269188 C66.1094742,4.18130789 66.0593494,4.46773556 66.0007619,4.76197489 C65.7507887,4.77369239 65.535317,4.7795522 65.3543467,4.7795522 C65.138224,4.7795522 64.8719765,4.77369239 64.5556041,4.76197489 C64.536075,4.76197489 64.5204516,4.75579066 64.5087341,4.74342219 C64.4970166,4.73105372 64.4911429,4.71575536 64.4911429,4.6975271 L64.4911429,4.6975451 Z M66.2819791,2.88719091 L66.7213721,2.88719091 C66.6901254,2.6736721 66.6478123,2.3693427 66.5944326,1.97420271 C66.5410529,1.57906272 66.502645,1.29946599 66.4792089,1.13541251 C66.45317,1.34762937 66.4186685,1.65195877 66.3757044,2.04840071 C66.3327402,2.44484264 66.3014929,2.72443937 66.2819624,2.88719091 L66.2819791,2.88719091 Z M68.6801321,2.4165213 C68.6801321,2.05458088 68.7130205,1.73658107 68.7787687,1.46252187 C68.8445168,1.18846266 68.9366296,0.960620389 69.0551071,0.778995042 C69.1735845,0.597369694 69.3229818,0.449598847 69.5032991,0.335682501 C69.6836163,0.221766155 69.8811818,0.140720164 70.0959956,0.0925445302 C70.3108094,0.0443688959 70.55493,0.0202882656 70.8283572,0.0202882656 C70.974175,0.0202882656 71.1118555,0.0310293032 71.2413989,0.0525113785 C71.3709424,0.0739934537 71.5300987,0.107517865 71.7188678,0.153084612 L71.5509178,1.37755353 L70.830275,1.32873075 C70.7690836,1.32482492 70.714402,1.3300327 70.66623,1.34435408 C70.6180581,1.35867546 70.5711884,1.38927085 70.5256211,1.43614025 C70.4800537,1.48300965 70.4422977,1.54647886 70.4123532,1.62654787 C70.3824087,1.70661688 70.3583232,1.81305082 70.3400969,1.94584969 C70.3218706,2.07864855 70.3127571,2.23553842 70.3127563,2.4165193 C70.3127563,2.59879145 70.3208934,2.75600118 70.3371677,2.88814849 C70.353442,3.02028827 70.3755756,3.12705504 70.4035686,3.20842621 C70.4315616,3.28979737 70.4680163,3.35326658 70.5129329,3.39883382 C70.5578495,3.44440107 70.6050444,3.47467116 70.6545177,3.4896441 C70.7039911,3.50461704 70.7625781,3.50949932 70.8302789,3.50429093 L71.5509218,3.45741995 L71.7110606,4.69164782 C71.399896,4.74893335 71.1004489,4.77757612 70.8127193,4.77757612 C70.6603919,4.77757612 70.5204329,4.77204286 70.3928424,4.76097634 C70.2652519,4.74990981 70.1392894,4.73103183 70.0149548,4.7043424 C69.8906203,4.67765296 69.7776764,4.64282603 69.6761231,4.59986158 C69.5745698,4.55689714 69.4772496,4.502215 69.3841624,4.43581515 C69.2910752,4.3694153 69.2087266,4.29227555 69.1371168,4.20439592 C69.065507,4.11651629 69.0004099,4.0139886 68.9418257,3.89681285 C68.8832415,3.7796371 68.8350693,3.64814051 68.7973092,3.50232308 C68.7595491,3.35650565 68.7305802,3.19278984 68.7104025,3.01117566 C68.6902248,2.82956148 68.6801321,2.6313427 68.6801321,2.41651932 L68.6801321,2.4165213 Z M72.0782103,2.41848109 C72.0782103,1.68939247 72.0886377,0.908226103 72.1094688,0.0749819727 C72.3568381,0.0632644772 72.8971449,0.0574057294 73.730389,0.0574057294 C74.3201696,0.0574057294 74.774548,0.0632644772 75.0935243,0.0749819727 C75.1143554,0.0749819727 75.1325826,0.0827936365 75.148206,0.0984169639 C75.1638293,0.114040291 75.171641,0.132267673 75.171641,0.15309911 C75.1768488,0.470773434 75.1794527,0.696009738 75.1794527,0.828808021 C75.1794527,1.03321322 75.1768488,1.22459898 75.171641,1.4029653 C74.9516125,1.41338086 74.5375943,1.41858863 73.9295865,1.41858863 C73.8202232,1.41858863 73.7212755,1.41793766 73.6327433,1.41663572 C73.6301394,1.59630398 73.6281865,1.7330081 73.6268845,1.82674806 C74.0929805,1.82935195 74.4047961,1.83390875 74.5623313,1.84041847 C74.5831624,1.84041847 74.6013896,1.84823014 74.6170129,1.86385346 C74.6326362,1.87947679 74.6404479,1.89770417 74.640448,1.91853561 C74.6443538,2.13205442 74.6463068,2.32799698 74.6463068,2.5063633 C74.6463068,2.66650241 74.6443538,2.84031193 74.640448,3.02779186 L73.6268765,3.02779186 C73.6281785,3.11892793 73.6301314,3.25433011 73.6327353,3.43399837 L73.7264772,3.43399837 C74.3644298,3.43399837 74.8253179,3.43920615 75.1091417,3.4496217 C75.1299728,3.4496217 75.1482,3.45743336 75.1638234,3.47305669 C75.1794467,3.48868002 75.1872584,3.5069074 75.1872584,3.52773884 C75.1924662,3.84541316 75.1950701,4.07064946 75.1950701,4.20344775 C75.1950701,4.40785295 75.1924662,4.59923871 75.1872584,4.77760503 C74.9398891,4.78932253 74.4933223,4.79518127 73.8475581,4.79518127 C73.7186657,4.79518127 73.444281,4.79094996 73.0244041,4.78248732 C72.6045271,4.77402468 72.3255837,4.76718942 72.1875736,4.76198152 C72.1667425,4.76198152 72.1485153,4.75416985 72.132892,4.73854652 C72.1172687,4.7229232 72.109457,4.70469581 72.1094569,4.68386438 C72.0886258,3.70480253 72.0782103,2.94967503 72.0782103,2.4184819 L72.0782103,2.41848109 Z M75.4938714,4.08822233 C75.4938714,3.91766767 75.4958244,3.73865038 75.4997302,3.55117045 C75.689814,3.54205684 75.8825017,3.53750004 76.0777933,3.53750004 C76.2496499,3.53750004 76.4735843,3.54205684 76.7495964,3.55117045 C76.7704275,3.55117045 76.7886547,3.55898212 76.804278,3.57460544 C76.8199014,3.59022877 76.8277131,3.60845615 76.8277131,3.62928759 C76.831619,3.84020251 76.8335719,4.04005091 76.8335719,4.22883278 C76.8335719,4.39678355 76.831619,4.5744989 76.8277131,4.76197883 C76.7105382,4.76848855 76.5692773,4.77174341 76.4039304,4.77174341 C76.1643727,4.77174341 75.8890115,4.76328077 75.5778469,4.7463555 C75.5557139,4.74505356 75.5371612,4.73691641 75.5221888,4.72194405 C75.5072165,4.7069717 75.4997303,4.68906961 75.4997304,4.6682378 C75.4958246,4.4638326 75.4938714,4.27049392 75.4938714,4.08822177 L75.4938714,4.08822233 Z" id="Shape"></path>
                </g>
            </g>
        </g>
    </g>
</svg>