<?xml version="1.0" encoding="UTF-8"?>
<svg width="30px" height="30px" viewBox="0 0 30 30" version="1.1" xmlns="http://www.w3.org/2000/svg" xmlns:xlink="http://www.w3.org/1999/xlink">
    <!-- Generator: sketchtool 57.1 (101010) - https://sketch.com -->
    <title>06DFF23F-630A-4CF7-9844-04FA1E02617D</title>
    <desc>Created with sketchtool.</desc>
    <g id="Page-1" stroke="none" stroke-width="1" fill="none" fill-rule="evenodd">
        <g id="07-Order-Track" transform="translate(-490.000000, -434.000000)" fill-rule="nonzero">
            <g id="Group-5" transform="translate(443.000000, 380.000000)">
                <g id="Group-3" transform="translate(48.000000, 55.000000)">
                    <path d="M1.13175002,13.8342377 L3.03749999,25.0358687 C3.18611249,25.83085 3.83749999,27.8358687 6.63749999,27.8358687 L21.2809503,27.6717379 C22.8340128,27.6717379 24.1665191,26.5649629 24.4515379,25.0382816 L26.5432504,13.8342377 L1.13175002,13.8342377 Z" id="XMLID_1035_-Copy" stroke="#0B2031" stroke-width="1.6"></path>
                    <path d="M4.83744382,10.2342377 L1.80000003,10.2342377 C0.805893762,10.2342377 0,11.0401314 0,12.0342377 C0,13.0283439 0.805893762,13.8342377 1.80000003,13.8342377 L25.8750004,13.8342377 C26.8691067,13.8342377 27.6750004,13.0283439 27.6750004,12.0342377 C27.6750004,11.0401314 26.8691067,10.2342377 25.8750004,10.2342377 L22.8370503,10.2342377 L4.83744382,10.2342377 Z" id="XMLID_873_" stroke="#0B2031" stroke-width="1.6"></path>
                    <path d="M13.8375002,11.5842377 C13.0919064,11.5842377 12.4875002,10.9798314 12.4875002,10.2342377 L12.4875002,1.35000002 C12.4875002,0.604406259 13.0919064,-7.28306304e-14 13.8375002,-7.28306304e-14 C14.583094,-7.28306304e-14 15.1875002,0.604406259 15.1875002,1.35000002 L15.1875002,10.2342939 C15.1875002,10.9798314 14.583094,11.5842377 13.8375002,11.5842377 Z" id="XMLID_1016_" stroke="#0B2031" stroke-width="1.6" fill="#FFFFFF"></path>
                    <path d="M13.8375002,16.778644 C13.5268877,16.778644 13.2750002,17.0305315 13.2750002,17.341144 L13.2750002,24.1648879 C13.2750002,24.4755004 13.5268877,24.7273879 13.8375002,24.7273879 C14.1481127,24.7273879 14.4000002,24.4755004 14.4000002,24.1648879 L14.4000002,17.341144 C14.4000002,17.0304753 14.1481127,16.778644 13.8375002,16.778644 L13.8375002,16.778644 Z" id="XMLID_689_" fill="#E34234"></path>
                    <path d="M8.32038762,17.2690878 C8.28061887,16.9610065 7.99824387,16.743769 7.69044386,16.7832565 C7.38236261,16.8230815 7.16484386,17.105119 7.20461261,17.4132003 L8.08588137,24.2369441 C8.12250012,24.5205566 8.36448762,24.7274441 8.64303763,24.7274441 C8.66705638,24.7274441 8.69135638,24.7259254 8.71582513,24.7227754 C9.02390638,24.6829504 9.24142514,24.4009129 9.20165639,24.0928316 L8.32038762,17.2690878 Z" id="XMLID_690_" fill="#E34234"></path>
                    <path d="M19.5203876,17.2690878 C19.4806189,16.9610065 19.1982439,16.743769 18.8904439,16.7832565 C18.5823626,16.8230815 18.3648439,17.105119 18.4046126,17.4132003 L19.2858814,24.2369441 C19.3225001,24.5205566 19.5644876,24.7274441 19.8430376,24.7274441 C19.8670564,24.7274441 19.8913564,24.7259254 19.9158251,24.7227754 C20.2239064,24.6829504 20.4414251,24.4009129 20.4016564,24.0928316 L19.5203876,17.2690878 Z" id="XMLID_690_-Copy" fill="#E34234" transform="translate(19.403134, 20.753033) scale(-1, 1) translate(-19.403134, -20.753033) "></path>
                </g>
            </g>
        </g>
    </g>
</svg>