<?xml version="1.0" encoding="UTF-8"?>
<svg width="27px" height="27px" viewBox="0 0 27 27" version="1.1" xmlns="http://www.w3.org/2000/svg" xmlns:xlink="http://www.w3.org/1999/xlink">
    <!-- Generator: sketchtool 57.1 (101010) - https://sketch.com -->
    <title>742F9BAE-8998-4D8D-9DE7-D903A3488903</title>
    <desc>Created with sketchtool.</desc>
    <g id="Page-1" stroke="none" stroke-width="1" fill="none" fill-rule="evenodd">
        <g id="07-Order-Track" transform="translate(-893.000000, -439.000000)" fill-rule="nonzero">
            <g id="Group-5" transform="translate(443.000000, 380.000000)">
                <g id="Group-4" transform="translate(451.000000, 60.000000)">
                    <path d="M12.5,0 C14.225269,0 15.848788,0.325517578 17.3706055,0.9765625 C18.892423,1.62760742 20.2189071,2.51871179 21.3500977,3.64990234 C22.4812882,4.7810929 23.3723926,6.10757703 24.0234375,7.62939453 C24.6744824,9.15121204 25,10.774731 25,12.5 C25,14.225269 24.6744824,15.848788 24.0234375,17.3706055 C23.3723926,18.892423 22.4812882,20.2189071 21.3500977,21.3500977 C20.2189071,22.4812882 18.892423,23.3723926 17.3706055,24.0234375 C15.848788,24.6744824 14.225269,25 12.5,25 C10.774731,25 9.15121204,24.6744824 7.62939453,24.0234375 C6.10757703,23.3723926 4.7810929,22.4812882 3.64990234,21.3500977 C2.51871179,20.2189071 1.62760742,18.892423 0.9765625,17.3706055 C0.325517578,15.848788 0,14.225269 0,12.5 C0,10.774731 0.325517578,9.15121204 0.9765625,7.62939453 C1.62760742,6.10757703 2.51871179,4.7810929 3.64990234,3.64990234 C4.7810929,2.51871179 6.10757703,1.62760742 7.62939453,0.9765625 C9.15121204,0.325517578 10.774731,0 12.5,0 Z" id="Path" stroke="#0B2031" stroke-width="1.8" fill="#FFFFFF"></path>
                    <path d="M17.4804688,7.93457031 C17.64323,7.77180908 17.8304026,7.69042969 18.0419922,7.69042969 C18.2535818,7.69042969 18.4407544,7.77180908 18.6035156,7.93457031 C18.7500007,8.08105542 18.8232422,8.26415906 18.8232422,8.48388672 C18.8232422,8.70361438 18.7500007,8.88671802 18.6035156,9.03320312 L10.8154297,16.8701172 C10.7991536,16.8863933 10.7828777,16.9026692 10.7666016,16.9189453 C10.7503254,16.9352214 10.7340496,16.9514973 10.7177734,16.9677734 C10.5712883,17.1305347 10.3881847,17.2119141 10.168457,17.2119141 C9.94872937,17.2119141 9.76562573,17.1305347 9.61914062,16.9677734 L5.73730469,13.1103516 C5.59081958,12.9638665 5.51757812,12.7807628 5.51757812,12.5610352 C5.51757812,12.3413075 5.59081958,12.1582039 5.73730469,12.0117188 C5.90006592,11.8489575 6.08723853,11.7675781 6.29882812,11.7675781 C6.51041772,11.7675781 6.69759033,11.8489575 6.86035156,12.0117188 L10.15625,15.3076172 L17.4804688,7.93457031 Z" id="Path" fill="#E34234"></path>
                </g>
            </g>
        </g>
    </g>
</svg>