<?xml version="1.0" encoding="UTF-8"?>
<svg width="32px" height="30px" viewBox="0 0 32 30" version="1.1" xmlns="http://www.w3.org/2000/svg" xmlns:xlink="http://www.w3.org/1999/xlink">
    <!-- Generator: Sketch 58 (84663) - https://sketch.com -->
    <title>picked-up</title>
    <desc>Created with Sketch.</desc>
    <g id="Page-1" stroke="none" stroke-width="1" fill="none" fill-rule="evenodd">
        <g id="07-Order-Track" transform="translate(-1088.000000, -815.000000)">
            <g id="picked-up" transform="translate(1089.000000, 815.000000)">
                <g id="tray-(1)" fill-rule="nonzero">
                    <path d="M26.7394922,19.5935156 C26.7104883,19.545 26.6799609,19.4985352 26.6494922,19.4575195 C26.3465039,19.0340039 25.8959766,18.754043 25.3819922,18.6694922 C24.8704687,18.585 24.3519727,18.7054688 23.9299805,19.0085156 L18.3399609,23.0000391 L12.4999805,23.0000391 C12.2244727,23.0000391 12,22.7760352 12,22.5000586 C12,22.224082 12.2244727,22.0000781 12.4999805,22.0000781 L15.75,22.0000781 C16.7149805,22.0000781 17.5000195,21.2150977 17.5000195,20.2500586 C17.5000195,20.2445508 17.4994922,20.1985547 17.4990234,20.1935742 C17.4680273,19.2290625 16.6545117,18.4770703 15.7100391,18.5000977 L9.20554687,18.5000977 C8.62904297,18.5050781 8.06753906,18.7116211 7.62503906,19.0805859 L5.18003906,21.1156055 C5.06601562,21.2111133 5.00003906,21.3516211 5.00003906,21.5000977 L5.00003906,27.5000977 C5.00003906,27.7766016 5.22404297,28.0000781 5.50001953,28.0000781 L17.9055469,28.0000781 C18.7175391,27.999082 19.5085547,27.7130859 20.1335742,27.1955859 L26.1950977,22.1871094 C27.0185156,21.6004688 27.2575195,20.4615234 26.7394922,19.5935156 Z M25.5870117,21.3945117 L19.4964844,26.4250195 C19.0494727,26.7950391 18.4839844,26.9990039 17.9049609,27 L6,27 L6,21.7344727 L8.26546875,19.848457 C8.53148437,19.6269727 8.86798828,19.5029297 9.21,19.4999414 L15.7259766,19.499472 C16.1404687,19.4989453 16.4864648,19.8124805 16.5,20.25 C16.5,20.6634961 16.1634961,21 15.75,21 L12.4999805,21 C11.6729883,21 10.9999805,21.6730078 10.9999805,22.5 C10.9999805,23.3269922 11.6729883,24 12.4999805,24 L18.4999805,24 C18.6039844,24 18.7054687,23.9674805 18.7914844,23.9070117 L24.5124609,19.8215039 C24.7184766,19.6734961 24.9689648,19.6160156 25.2199805,19.6559766 C25.4704687,19.6974609 25.6894922,19.833457 25.8399609,20.043457 C25.8549609,20.0639648 25.8684375,20.0849414 25.8814453,20.1064453 C26.1345117,20.5300195 26.0169727,21.0864844 25.5870117,21.3945117 Z" id="Shape" stroke="#0B2031" stroke-width="0.5" fill="#000000"></path>
                    <path d="M5.48501953,20.5000195 L0,20.5000195 L0,21.5000391 L4.98498047,21.5000391 L4.98498047,29.0000391 L0,29.0000391 L0,30 L5.48501953,30 C5.76099609,30 5.985,29.7765234 5.985,29.5000195 L5.985,21 C5.985,20.7234961 5.76099609,20.5000195 5.48501953,20.5000195 Z" id="Path" fill="#000000"></path>
                    <path d="M2.50001953,25.0000195 C1.67302734,25.0000195 1.00001953,25.6730273 1.00001953,26.5000195 C1.00001953,27.3270117 1.67302734,28.0000195 2.50001953,28.0000195 C3.32701172,28.0000195 4.00001953,27.3270117 4.00001953,26.5000195 C4.00001953,25.6730273 3.32701172,25.0000195 2.50001953,25.0000195 Z" id="Path" fill="#E34234"></path>
                    <path d="M29.5000195,15.4999805 L0.499980469,15.4999805 C0.224003906,15.4999805 0,15.723457 0,15.9999609 C0,17.9294531 1.57001953,19.4999414 3.49998047,19.4999414 L26.4999609,19.4999414 C28.4294531,19.4999414 29.9999414,17.9294531 29.9999414,15.9999609 C29.9999414,15.7235156 29.7765234,15.4999805 29.5000195,15.4999805 Z M26.5000195,18.4999805 L3.49998047,18.4999805 C2.29248047,18.4999805 1.2825,17.6394727 1.05046875,16.5 L28.9494727,16.5 C28.7175,17.6394727 27.7075195,18.4999805 26.5000195,18.4999805 Z" id="Shape" stroke="#0B2031" stroke-width="0.5" fill="#000000"></path>
                    <path d="M15,2.50001953 C7.83199219,2.50001953 1.99998047,8.33203125 1.99998047,15.5000391 L1.99998047,16.0000195 C1.99998047,16.2765234 2.22398438,16.5 2.49996094,16.5 L27.4999805,16.5 C27.7764844,16.5 27.9999609,16.2765234 27.9999609,16.0000195 L27.9999609,15.5000391 C27.9999609,8.33197266 22.1684766,2.50001953 15,2.50001953 Z M3,15.4999805 C3,8.88345703 8.38347656,3.49998047 15,3.49998047 C21.6165234,3.49998047 27,8.88345703 27,15.4999805 L3,15.4999805 Z" id="Shape" stroke="#0B2031" stroke-width="0.5" fill="#000000"></path>
                    <rect id="Rectangle" fill="#000000" x="13.5" y="0" width="3" height="1.00001953"></rect>
                    <rect id="Rectangle" fill="#000000" x="14.5000195" y="0.499980469" width="1.00001953" height="2.50001953"></rect>
                </g>
                <path d="M14.5,5 C10.5,5.33333333 8,7.33333333 7,11" id="Path-3" stroke="#E34234" stroke-width="1.4" stroke-linecap="round" stroke-linejoin="round"></path>
            </g>
        </g>
    </g>
</svg>